%TF.GenerationSoftware,KiCad,Pcbnew,5.1.10*%
%TF.CreationDate,2021-08-16T03:58:39-04:00*%
%TF.ProjectId,wifi-50A-relay,77696669-2d35-4304-912d-72656c61792e,rev?*%
%TF.SameCoordinates,Original*%
%TF.FileFunction,Paste,Top*%
%TF.FilePolarity,Positive*%
%FSLAX46Y46*%
G04 Gerber Fmt 4.6, Leading zero omitted, Abs format (unit mm)*
G04 Created by KiCad (PCBNEW 5.1.10) date 2021-08-16 03:58:39*
%MOMM*%
%LPD*%
G01*
G04 APERTURE LIST*
%ADD10R,1.100000X0.250000*%
%ADD11R,4.300000X4.300000*%
%ADD12R,0.850000X0.912500*%
%ADD13R,0.800000X0.900000*%
%ADD14R,0.400000X0.650000*%
%ADD15R,1.800000X2.500000*%
G04 APERTURE END LIST*
%TO.C,R12*%
G36*
G01*
X91685000Y-59560000D02*
X91315000Y-59560000D01*
G75*
G02*
X91180000Y-59425000I0J135000D01*
G01*
X91180000Y-59155000D01*
G75*
G02*
X91315000Y-59020000I135000J0D01*
G01*
X91685000Y-59020000D01*
G75*
G02*
X91820000Y-59155000I0J-135000D01*
G01*
X91820000Y-59425000D01*
G75*
G02*
X91685000Y-59560000I-135000J0D01*
G01*
G37*
G36*
G01*
X91685000Y-60580000D02*
X91315000Y-60580000D01*
G75*
G02*
X91180000Y-60445000I0J135000D01*
G01*
X91180000Y-60175000D01*
G75*
G02*
X91315000Y-60040000I135000J0D01*
G01*
X91685000Y-60040000D01*
G75*
G02*
X91820000Y-60175000I0J-135000D01*
G01*
X91820000Y-60445000D01*
G75*
G02*
X91685000Y-60580000I-135000J0D01*
G01*
G37*
%TD*%
%TO.C,C13*%
G36*
G01*
X94800000Y-75930000D02*
X94800000Y-76270000D01*
G75*
G02*
X94660000Y-76410000I-140000J0D01*
G01*
X94380000Y-76410000D01*
G75*
G02*
X94240000Y-76270000I0J140000D01*
G01*
X94240000Y-75930000D01*
G75*
G02*
X94380000Y-75790000I140000J0D01*
G01*
X94660000Y-75790000D01*
G75*
G02*
X94800000Y-75930000I0J-140000D01*
G01*
G37*
G36*
G01*
X95760000Y-75930000D02*
X95760000Y-76270000D01*
G75*
G02*
X95620000Y-76410000I-140000J0D01*
G01*
X95340000Y-76410000D01*
G75*
G02*
X95200000Y-76270000I0J140000D01*
G01*
X95200000Y-75930000D01*
G75*
G02*
X95340000Y-75790000I140000J0D01*
G01*
X95620000Y-75790000D01*
G75*
G02*
X95760000Y-75930000I0J-140000D01*
G01*
G37*
%TD*%
%TO.C,C12*%
G36*
G01*
X98900000Y-75630000D02*
X98900000Y-75970000D01*
G75*
G02*
X98760000Y-76110000I-140000J0D01*
G01*
X98480000Y-76110000D01*
G75*
G02*
X98340000Y-75970000I0J140000D01*
G01*
X98340000Y-75630000D01*
G75*
G02*
X98480000Y-75490000I140000J0D01*
G01*
X98760000Y-75490000D01*
G75*
G02*
X98900000Y-75630000I0J-140000D01*
G01*
G37*
G36*
G01*
X99860000Y-75630000D02*
X99860000Y-75970000D01*
G75*
G02*
X99720000Y-76110000I-140000J0D01*
G01*
X99440000Y-76110000D01*
G75*
G02*
X99300000Y-75970000I0J140000D01*
G01*
X99300000Y-75630000D01*
G75*
G02*
X99440000Y-75490000I140000J0D01*
G01*
X99720000Y-75490000D01*
G75*
G02*
X99860000Y-75630000I0J-140000D01*
G01*
G37*
%TD*%
%TO.C,C11*%
G36*
G01*
X93200000Y-75470000D02*
X93200000Y-75130000D01*
G75*
G02*
X93340000Y-74990000I140000J0D01*
G01*
X93620000Y-74990000D01*
G75*
G02*
X93760000Y-75130000I0J-140000D01*
G01*
X93760000Y-75470000D01*
G75*
G02*
X93620000Y-75610000I-140000J0D01*
G01*
X93340000Y-75610000D01*
G75*
G02*
X93200000Y-75470000I0J140000D01*
G01*
G37*
G36*
G01*
X92240000Y-75470000D02*
X92240000Y-75130000D01*
G75*
G02*
X92380000Y-74990000I140000J0D01*
G01*
X92660000Y-74990000D01*
G75*
G02*
X92800000Y-75130000I0J-140000D01*
G01*
X92800000Y-75470000D01*
G75*
G02*
X92660000Y-75610000I-140000J0D01*
G01*
X92380000Y-75610000D01*
G75*
G02*
X92240000Y-75470000I0J140000D01*
G01*
G37*
%TD*%
%TO.C,R11*%
G36*
G01*
X94760000Y-74915000D02*
X94760000Y-75285000D01*
G75*
G02*
X94625000Y-75420000I-135000J0D01*
G01*
X94355000Y-75420000D01*
G75*
G02*
X94220000Y-75285000I0J135000D01*
G01*
X94220000Y-74915000D01*
G75*
G02*
X94355000Y-74780000I135000J0D01*
G01*
X94625000Y-74780000D01*
G75*
G02*
X94760000Y-74915000I0J-135000D01*
G01*
G37*
G36*
G01*
X95780000Y-74915000D02*
X95780000Y-75285000D01*
G75*
G02*
X95645000Y-75420000I-135000J0D01*
G01*
X95375000Y-75420000D01*
G75*
G02*
X95240000Y-75285000I0J135000D01*
G01*
X95240000Y-74915000D01*
G75*
G02*
X95375000Y-74780000I135000J0D01*
G01*
X95645000Y-74780000D01*
G75*
G02*
X95780000Y-74915000I0J-135000D01*
G01*
G37*
%TD*%
%TO.C,R10*%
G36*
G01*
X96760000Y-74915000D02*
X96760000Y-75285000D01*
G75*
G02*
X96625000Y-75420000I-135000J0D01*
G01*
X96355000Y-75420000D01*
G75*
G02*
X96220000Y-75285000I0J135000D01*
G01*
X96220000Y-74915000D01*
G75*
G02*
X96355000Y-74780000I135000J0D01*
G01*
X96625000Y-74780000D01*
G75*
G02*
X96760000Y-74915000I0J-135000D01*
G01*
G37*
G36*
G01*
X97780000Y-74915000D02*
X97780000Y-75285000D01*
G75*
G02*
X97645000Y-75420000I-135000J0D01*
G01*
X97375000Y-75420000D01*
G75*
G02*
X97240000Y-75285000I0J135000D01*
G01*
X97240000Y-74915000D01*
G75*
G02*
X97375000Y-74780000I135000J0D01*
G01*
X97645000Y-74780000D01*
G75*
G02*
X97780000Y-74915000I0J-135000D01*
G01*
G37*
%TD*%
%TO.C,R9*%
G36*
G01*
X99685000Y-74060000D02*
X99315000Y-74060000D01*
G75*
G02*
X99180000Y-73925000I0J135000D01*
G01*
X99180000Y-73655000D01*
G75*
G02*
X99315000Y-73520000I135000J0D01*
G01*
X99685000Y-73520000D01*
G75*
G02*
X99820000Y-73655000I0J-135000D01*
G01*
X99820000Y-73925000D01*
G75*
G02*
X99685000Y-74060000I-135000J0D01*
G01*
G37*
G36*
G01*
X99685000Y-75080000D02*
X99315000Y-75080000D01*
G75*
G02*
X99180000Y-74945000I0J135000D01*
G01*
X99180000Y-74675000D01*
G75*
G02*
X99315000Y-74540000I135000J0D01*
G01*
X99685000Y-74540000D01*
G75*
G02*
X99820000Y-74675000I0J-135000D01*
G01*
X99820000Y-74945000D01*
G75*
G02*
X99685000Y-75080000I-135000J0D01*
G01*
G37*
%TD*%
%TO.C,R8*%
G36*
G01*
X92685000Y-73560000D02*
X92315000Y-73560000D01*
G75*
G02*
X92180000Y-73425000I0J135000D01*
G01*
X92180000Y-73155000D01*
G75*
G02*
X92315000Y-73020000I135000J0D01*
G01*
X92685000Y-73020000D01*
G75*
G02*
X92820000Y-73155000I0J-135000D01*
G01*
X92820000Y-73425000D01*
G75*
G02*
X92685000Y-73560000I-135000J0D01*
G01*
G37*
G36*
G01*
X92685000Y-74580000D02*
X92315000Y-74580000D01*
G75*
G02*
X92180000Y-74445000I0J135000D01*
G01*
X92180000Y-74175000D01*
G75*
G02*
X92315000Y-74040000I135000J0D01*
G01*
X92685000Y-74040000D01*
G75*
G02*
X92820000Y-74175000I0J-135000D01*
G01*
X92820000Y-74445000D01*
G75*
G02*
X92685000Y-74580000I-135000J0D01*
G01*
G37*
%TD*%
%TO.C,R7*%
G36*
G01*
X100315000Y-84240000D02*
X100685000Y-84240000D01*
G75*
G02*
X100820000Y-84375000I0J-135000D01*
G01*
X100820000Y-84645000D01*
G75*
G02*
X100685000Y-84780000I-135000J0D01*
G01*
X100315000Y-84780000D01*
G75*
G02*
X100180000Y-84645000I0J135000D01*
G01*
X100180000Y-84375000D01*
G75*
G02*
X100315000Y-84240000I135000J0D01*
G01*
G37*
G36*
G01*
X100315000Y-83220000D02*
X100685000Y-83220000D01*
G75*
G02*
X100820000Y-83355000I0J-135000D01*
G01*
X100820000Y-83625000D01*
G75*
G02*
X100685000Y-83760000I-135000J0D01*
G01*
X100315000Y-83760000D01*
G75*
G02*
X100180000Y-83625000I0J135000D01*
G01*
X100180000Y-83355000D01*
G75*
G02*
X100315000Y-83220000I135000J0D01*
G01*
G37*
%TD*%
%TO.C,R6*%
G36*
G01*
X94315000Y-84240000D02*
X94685000Y-84240000D01*
G75*
G02*
X94820000Y-84375000I0J-135000D01*
G01*
X94820000Y-84645000D01*
G75*
G02*
X94685000Y-84780000I-135000J0D01*
G01*
X94315000Y-84780000D01*
G75*
G02*
X94180000Y-84645000I0J135000D01*
G01*
X94180000Y-84375000D01*
G75*
G02*
X94315000Y-84240000I135000J0D01*
G01*
G37*
G36*
G01*
X94315000Y-83220000D02*
X94685000Y-83220000D01*
G75*
G02*
X94820000Y-83355000I0J-135000D01*
G01*
X94820000Y-83625000D01*
G75*
G02*
X94685000Y-83760000I-135000J0D01*
G01*
X94315000Y-83760000D01*
G75*
G02*
X94180000Y-83625000I0J135000D01*
G01*
X94180000Y-83355000D01*
G75*
G02*
X94315000Y-83220000I135000J0D01*
G01*
G37*
%TD*%
%TO.C,R3*%
G36*
G01*
X91315000Y-48640000D02*
X91685000Y-48640000D01*
G75*
G02*
X91820000Y-48775000I0J-135000D01*
G01*
X91820000Y-49045000D01*
G75*
G02*
X91685000Y-49180000I-135000J0D01*
G01*
X91315000Y-49180000D01*
G75*
G02*
X91180000Y-49045000I0J135000D01*
G01*
X91180000Y-48775000D01*
G75*
G02*
X91315000Y-48640000I135000J0D01*
G01*
G37*
G36*
G01*
X91315000Y-47620000D02*
X91685000Y-47620000D01*
G75*
G02*
X91820000Y-47755000I0J-135000D01*
G01*
X91820000Y-48025000D01*
G75*
G02*
X91685000Y-48160000I-135000J0D01*
G01*
X91315000Y-48160000D01*
G75*
G02*
X91180000Y-48025000I0J135000D01*
G01*
X91180000Y-47755000D01*
G75*
G02*
X91315000Y-47620000I135000J0D01*
G01*
G37*
%TD*%
%TO.C,R2*%
G36*
G01*
X91240000Y-41685000D02*
X91240000Y-41315000D01*
G75*
G02*
X91375000Y-41180000I135000J0D01*
G01*
X91645000Y-41180000D01*
G75*
G02*
X91780000Y-41315000I0J-135000D01*
G01*
X91780000Y-41685000D01*
G75*
G02*
X91645000Y-41820000I-135000J0D01*
G01*
X91375000Y-41820000D01*
G75*
G02*
X91240000Y-41685000I0J135000D01*
G01*
G37*
G36*
G01*
X90220000Y-41685000D02*
X90220000Y-41315000D01*
G75*
G02*
X90355000Y-41180000I135000J0D01*
G01*
X90625000Y-41180000D01*
G75*
G02*
X90760000Y-41315000I0J-135000D01*
G01*
X90760000Y-41685000D01*
G75*
G02*
X90625000Y-41820000I-135000J0D01*
G01*
X90355000Y-41820000D01*
G75*
G02*
X90220000Y-41685000I0J135000D01*
G01*
G37*
%TD*%
%TO.C,R1*%
G36*
G01*
X107860000Y-60415000D02*
X107860000Y-60785000D01*
G75*
G02*
X107725000Y-60920000I-135000J0D01*
G01*
X107455000Y-60920000D01*
G75*
G02*
X107320000Y-60785000I0J135000D01*
G01*
X107320000Y-60415000D01*
G75*
G02*
X107455000Y-60280000I135000J0D01*
G01*
X107725000Y-60280000D01*
G75*
G02*
X107860000Y-60415000I0J-135000D01*
G01*
G37*
G36*
G01*
X108880000Y-60415000D02*
X108880000Y-60785000D01*
G75*
G02*
X108745000Y-60920000I-135000J0D01*
G01*
X108475000Y-60920000D01*
G75*
G02*
X108340000Y-60785000I0J135000D01*
G01*
X108340000Y-60415000D01*
G75*
G02*
X108475000Y-60280000I135000J0D01*
G01*
X108745000Y-60280000D01*
G75*
G02*
X108880000Y-60415000I0J-135000D01*
G01*
G37*
%TD*%
%TO.C,C10*%
G36*
G01*
X100150000Y-72970000D02*
X100150000Y-72630000D01*
G75*
G02*
X100290000Y-72490000I140000J0D01*
G01*
X100570000Y-72490000D01*
G75*
G02*
X100710000Y-72630000I0J-140000D01*
G01*
X100710000Y-72970000D01*
G75*
G02*
X100570000Y-73110000I-140000J0D01*
G01*
X100290000Y-73110000D01*
G75*
G02*
X100150000Y-72970000I0J140000D01*
G01*
G37*
G36*
G01*
X99190000Y-72970000D02*
X99190000Y-72630000D01*
G75*
G02*
X99330000Y-72490000I140000J0D01*
G01*
X99610000Y-72490000D01*
G75*
G02*
X99750000Y-72630000I0J-140000D01*
G01*
X99750000Y-72970000D01*
G75*
G02*
X99610000Y-73110000I-140000J0D01*
G01*
X99330000Y-73110000D01*
G75*
G02*
X99190000Y-72970000I0J140000D01*
G01*
G37*
%TD*%
%TO.C,C8*%
G36*
G01*
X91330000Y-43100000D02*
X91670000Y-43100000D01*
G75*
G02*
X91810000Y-43240000I0J-140000D01*
G01*
X91810000Y-43520000D01*
G75*
G02*
X91670000Y-43660000I-140000J0D01*
G01*
X91330000Y-43660000D01*
G75*
G02*
X91190000Y-43520000I0J140000D01*
G01*
X91190000Y-43240000D01*
G75*
G02*
X91330000Y-43100000I140000J0D01*
G01*
G37*
G36*
G01*
X91330000Y-42140000D02*
X91670000Y-42140000D01*
G75*
G02*
X91810000Y-42280000I0J-140000D01*
G01*
X91810000Y-42560000D01*
G75*
G02*
X91670000Y-42700000I-140000J0D01*
G01*
X91330000Y-42700000D01*
G75*
G02*
X91190000Y-42560000I0J140000D01*
G01*
X91190000Y-42280000D01*
G75*
G02*
X91330000Y-42140000I140000J0D01*
G01*
G37*
%TD*%
%TO.C,C7*%
G36*
G01*
X104930000Y-71500000D02*
X105270000Y-71500000D01*
G75*
G02*
X105410000Y-71640000I0J-140000D01*
G01*
X105410000Y-71920000D01*
G75*
G02*
X105270000Y-72060000I-140000J0D01*
G01*
X104930000Y-72060000D01*
G75*
G02*
X104790000Y-71920000I0J140000D01*
G01*
X104790000Y-71640000D01*
G75*
G02*
X104930000Y-71500000I140000J0D01*
G01*
G37*
G36*
G01*
X104930000Y-70540000D02*
X105270000Y-70540000D01*
G75*
G02*
X105410000Y-70680000I0J-140000D01*
G01*
X105410000Y-70960000D01*
G75*
G02*
X105270000Y-71100000I-140000J0D01*
G01*
X104930000Y-71100000D01*
G75*
G02*
X104790000Y-70960000I0J140000D01*
G01*
X104790000Y-70680000D01*
G75*
G02*
X104930000Y-70540000I140000J0D01*
G01*
G37*
%TD*%
%TO.C,C5*%
G36*
G01*
X90800000Y-38330000D02*
X90800000Y-38670000D01*
G75*
G02*
X90660000Y-38810000I-140000J0D01*
G01*
X90380000Y-38810000D01*
G75*
G02*
X90240000Y-38670000I0J140000D01*
G01*
X90240000Y-38330000D01*
G75*
G02*
X90380000Y-38190000I140000J0D01*
G01*
X90660000Y-38190000D01*
G75*
G02*
X90800000Y-38330000I0J-140000D01*
G01*
G37*
G36*
G01*
X91760000Y-38330000D02*
X91760000Y-38670000D01*
G75*
G02*
X91620000Y-38810000I-140000J0D01*
G01*
X91340000Y-38810000D01*
G75*
G02*
X91200000Y-38670000I0J140000D01*
G01*
X91200000Y-38330000D01*
G75*
G02*
X91340000Y-38190000I140000J0D01*
G01*
X91620000Y-38190000D01*
G75*
G02*
X91760000Y-38330000I0J-140000D01*
G01*
G37*
%TD*%
D10*
%TO.C,U3*%
X98150000Y-71800000D03*
X98150000Y-72300000D03*
X98150000Y-72800000D03*
X98150000Y-73300000D03*
X98150000Y-73800000D03*
X93850000Y-73800000D03*
X93850000Y-73300000D03*
X93850000Y-72800000D03*
X93850000Y-72300000D03*
X93850000Y-71800000D03*
%TD*%
%TO.C,U2*%
G36*
G01*
X105345000Y-65000000D02*
X105045000Y-65000000D01*
G75*
G02*
X104895000Y-64850000I0J150000D01*
G01*
X104895000Y-63200000D01*
G75*
G02*
X105045000Y-63050000I150000J0D01*
G01*
X105345000Y-63050000D01*
G75*
G02*
X105495000Y-63200000I0J-150000D01*
G01*
X105495000Y-64850000D01*
G75*
G02*
X105345000Y-65000000I-150000J0D01*
G01*
G37*
G36*
G01*
X106615000Y-65000000D02*
X106315000Y-65000000D01*
G75*
G02*
X106165000Y-64850000I0J150000D01*
G01*
X106165000Y-63200000D01*
G75*
G02*
X106315000Y-63050000I150000J0D01*
G01*
X106615000Y-63050000D01*
G75*
G02*
X106765000Y-63200000I0J-150000D01*
G01*
X106765000Y-64850000D01*
G75*
G02*
X106615000Y-65000000I-150000J0D01*
G01*
G37*
G36*
G01*
X107885000Y-65000000D02*
X107585000Y-65000000D01*
G75*
G02*
X107435000Y-64850000I0J150000D01*
G01*
X107435000Y-63200000D01*
G75*
G02*
X107585000Y-63050000I150000J0D01*
G01*
X107885000Y-63050000D01*
G75*
G02*
X108035000Y-63200000I0J-150000D01*
G01*
X108035000Y-64850000D01*
G75*
G02*
X107885000Y-65000000I-150000J0D01*
G01*
G37*
G36*
G01*
X109155000Y-65000000D02*
X108855000Y-65000000D01*
G75*
G02*
X108705000Y-64850000I0J150000D01*
G01*
X108705000Y-63200000D01*
G75*
G02*
X108855000Y-63050000I150000J0D01*
G01*
X109155000Y-63050000D01*
G75*
G02*
X109305000Y-63200000I0J-150000D01*
G01*
X109305000Y-64850000D01*
G75*
G02*
X109155000Y-65000000I-150000J0D01*
G01*
G37*
G36*
G01*
X109155000Y-69950000D02*
X108855000Y-69950000D01*
G75*
G02*
X108705000Y-69800000I0J150000D01*
G01*
X108705000Y-68150000D01*
G75*
G02*
X108855000Y-68000000I150000J0D01*
G01*
X109155000Y-68000000D01*
G75*
G02*
X109305000Y-68150000I0J-150000D01*
G01*
X109305000Y-69800000D01*
G75*
G02*
X109155000Y-69950000I-150000J0D01*
G01*
G37*
G36*
G01*
X107885000Y-69950000D02*
X107585000Y-69950000D01*
G75*
G02*
X107435000Y-69800000I0J150000D01*
G01*
X107435000Y-68150000D01*
G75*
G02*
X107585000Y-68000000I150000J0D01*
G01*
X107885000Y-68000000D01*
G75*
G02*
X108035000Y-68150000I0J-150000D01*
G01*
X108035000Y-69800000D01*
G75*
G02*
X107885000Y-69950000I-150000J0D01*
G01*
G37*
G36*
G01*
X106615000Y-69950000D02*
X106315000Y-69950000D01*
G75*
G02*
X106165000Y-69800000I0J150000D01*
G01*
X106165000Y-68150000D01*
G75*
G02*
X106315000Y-68000000I150000J0D01*
G01*
X106615000Y-68000000D01*
G75*
G02*
X106765000Y-68150000I0J-150000D01*
G01*
X106765000Y-69800000D01*
G75*
G02*
X106615000Y-69950000I-150000J0D01*
G01*
G37*
G36*
G01*
X105345000Y-69950000D02*
X105045000Y-69950000D01*
G75*
G02*
X104895000Y-69800000I0J150000D01*
G01*
X104895000Y-68150000D01*
G75*
G02*
X105045000Y-68000000I150000J0D01*
G01*
X105345000Y-68000000D01*
G75*
G02*
X105495000Y-68150000I0J-150000D01*
G01*
X105495000Y-69800000D01*
G75*
G02*
X105345000Y-69950000I-150000J0D01*
G01*
G37*
%TD*%
D11*
%TO.C,U1*%
X102620000Y-45080000D03*
D12*
X92762500Y-38500000D03*
X92762500Y-40000000D03*
X92762500Y-41500000D03*
X92762500Y-43000000D03*
X92762500Y-44500000D03*
X92762500Y-46000000D03*
X92762500Y-47500000D03*
X92762500Y-49000000D03*
X92762500Y-50500000D03*
X110237500Y-50500000D03*
X110237500Y-49000000D03*
X110237500Y-47500000D03*
X110237500Y-46000000D03*
X110237500Y-44500000D03*
X110237500Y-43000000D03*
X110237500Y-41500000D03*
X110237500Y-40000000D03*
X110237500Y-38500000D03*
%TD*%
%TO.C,SW1*%
G36*
G01*
X91300000Y-55400000D02*
X91300000Y-53800000D01*
G75*
G02*
X91500000Y-53600000I200000J0D01*
G01*
X91900000Y-53600000D01*
G75*
G02*
X92100000Y-53800000I0J-200000D01*
G01*
X92100000Y-55400000D01*
G75*
G02*
X91900000Y-55600000I-200000J0D01*
G01*
X91500000Y-55600000D01*
G75*
G02*
X91300000Y-55400000I0J200000D01*
G01*
G37*
G36*
G01*
X95500000Y-55400000D02*
X95500000Y-53800000D01*
G75*
G02*
X95700000Y-53600000I200000J0D01*
G01*
X96100000Y-53600000D01*
G75*
G02*
X96300000Y-53800000I0J-200000D01*
G01*
X96300000Y-55400000D01*
G75*
G02*
X96100000Y-55600000I-200000J0D01*
G01*
X95700000Y-55600000D01*
G75*
G02*
X95500000Y-55400000I0J200000D01*
G01*
G37*
%TD*%
%TO.C,R5*%
G36*
G01*
X107960000Y-57815000D02*
X107960000Y-58185000D01*
G75*
G02*
X107825000Y-58320000I-135000J0D01*
G01*
X107555000Y-58320000D01*
G75*
G02*
X107420000Y-58185000I0J135000D01*
G01*
X107420000Y-57815000D01*
G75*
G02*
X107555000Y-57680000I135000J0D01*
G01*
X107825000Y-57680000D01*
G75*
G02*
X107960000Y-57815000I0J-135000D01*
G01*
G37*
G36*
G01*
X108980000Y-57815000D02*
X108980000Y-58185000D01*
G75*
G02*
X108845000Y-58320000I-135000J0D01*
G01*
X108575000Y-58320000D01*
G75*
G02*
X108440000Y-58185000I0J135000D01*
G01*
X108440000Y-57815000D01*
G75*
G02*
X108575000Y-57680000I135000J0D01*
G01*
X108845000Y-57680000D01*
G75*
G02*
X108980000Y-57815000I0J-135000D01*
G01*
G37*
%TD*%
%TO.C,R4*%
G36*
G01*
X108440000Y-57185000D02*
X108440000Y-56815000D01*
G75*
G02*
X108575000Y-56680000I135000J0D01*
G01*
X108845000Y-56680000D01*
G75*
G02*
X108980000Y-56815000I0J-135000D01*
G01*
X108980000Y-57185000D01*
G75*
G02*
X108845000Y-57320000I-135000J0D01*
G01*
X108575000Y-57320000D01*
G75*
G02*
X108440000Y-57185000I0J135000D01*
G01*
G37*
G36*
G01*
X107420000Y-57185000D02*
X107420000Y-56815000D01*
G75*
G02*
X107555000Y-56680000I135000J0D01*
G01*
X107825000Y-56680000D01*
G75*
G02*
X107960000Y-56815000I0J-135000D01*
G01*
X107960000Y-57185000D01*
G75*
G02*
X107825000Y-57320000I-135000J0D01*
G01*
X107555000Y-57320000D01*
G75*
G02*
X107420000Y-57185000I0J135000D01*
G01*
G37*
%TD*%
D13*
%TO.C,Q1*%
X89250000Y-60250000D03*
X90200000Y-62250000D03*
X88300000Y-62250000D03*
%TD*%
%TO.C,L1*%
G36*
G01*
X100300000Y-58375000D02*
X100300000Y-59825000D01*
G75*
G02*
X99925000Y-60200000I-375000J0D01*
G01*
X99175000Y-60200000D01*
G75*
G02*
X98800000Y-59825000I0J375000D01*
G01*
X98800000Y-58375000D01*
G75*
G02*
X99175000Y-58000000I375000J0D01*
G01*
X99925000Y-58000000D01*
G75*
G02*
X100300000Y-58375000I0J-375000D01*
G01*
G37*
G36*
G01*
X105800000Y-58375000D02*
X105800000Y-59825000D01*
G75*
G02*
X105425000Y-60200000I-375000J0D01*
G01*
X104675000Y-60200000D01*
G75*
G02*
X104300000Y-59825000I0J375000D01*
G01*
X104300000Y-58375000D01*
G75*
G02*
X104675000Y-58000000I375000J0D01*
G01*
X105425000Y-58000000D01*
G75*
G02*
X105800000Y-58375000I0J-375000D01*
G01*
G37*
%TD*%
D14*
%TO.C,D3*%
X96600000Y-82800000D03*
X97900000Y-82800000D03*
X97250000Y-84700000D03*
X97250000Y-82800000D03*
X97900000Y-84700000D03*
X96600000Y-84700000D03*
%TD*%
D15*
%TO.C,D2*%
X89250000Y-57750000D03*
X89250000Y-53750000D03*
%TD*%
%TO.C,D1*%
X102500000Y-68100000D03*
X102500000Y-64100000D03*
%TD*%
%TO.C,C9*%
G36*
G01*
X99225000Y-64550000D02*
X100175000Y-64550000D01*
G75*
G02*
X100425000Y-64800000I0J-250000D01*
G01*
X100425000Y-65300000D01*
G75*
G02*
X100175000Y-65550000I-250000J0D01*
G01*
X99225000Y-65550000D01*
G75*
G02*
X98975000Y-65300000I0J250000D01*
G01*
X98975000Y-64800000D01*
G75*
G02*
X99225000Y-64550000I250000J0D01*
G01*
G37*
G36*
G01*
X99225000Y-62650000D02*
X100175000Y-62650000D01*
G75*
G02*
X100425000Y-62900000I0J-250000D01*
G01*
X100425000Y-63400000D01*
G75*
G02*
X100175000Y-63650000I-250000J0D01*
G01*
X99225000Y-63650000D01*
G75*
G02*
X98975000Y-63400000I0J250000D01*
G01*
X98975000Y-62900000D01*
G75*
G02*
X99225000Y-62650000I250000J0D01*
G01*
G37*
%TD*%
%TO.C,C6*%
G36*
G01*
X107275000Y-59050000D02*
X107275000Y-59550000D01*
G75*
G02*
X107050000Y-59775000I-225000J0D01*
G01*
X106600000Y-59775000D01*
G75*
G02*
X106375000Y-59550000I0J225000D01*
G01*
X106375000Y-59050000D01*
G75*
G02*
X106600000Y-58825000I225000J0D01*
G01*
X107050000Y-58825000D01*
G75*
G02*
X107275000Y-59050000I0J-225000D01*
G01*
G37*
G36*
G01*
X108825000Y-59050000D02*
X108825000Y-59550000D01*
G75*
G02*
X108600000Y-59775000I-225000J0D01*
G01*
X108150000Y-59775000D01*
G75*
G02*
X107925000Y-59550000I0J225000D01*
G01*
X107925000Y-59050000D01*
G75*
G02*
X108150000Y-58825000I225000J0D01*
G01*
X108600000Y-58825000D01*
G75*
G02*
X108825000Y-59050000I0J-225000D01*
G01*
G37*
%TD*%
%TO.C,C4*%
G36*
G01*
X107175000Y-61650000D02*
X107175000Y-62150000D01*
G75*
G02*
X106950000Y-62375000I-225000J0D01*
G01*
X106500000Y-62375000D01*
G75*
G02*
X106275000Y-62150000I0J225000D01*
G01*
X106275000Y-61650000D01*
G75*
G02*
X106500000Y-61425000I225000J0D01*
G01*
X106950000Y-61425000D01*
G75*
G02*
X107175000Y-61650000I0J-225000D01*
G01*
G37*
G36*
G01*
X108725000Y-61650000D02*
X108725000Y-62150000D01*
G75*
G02*
X108500000Y-62375000I-225000J0D01*
G01*
X108050000Y-62375000D01*
G75*
G02*
X107825000Y-62150000I0J225000D01*
G01*
X107825000Y-61650000D01*
G75*
G02*
X108050000Y-61425000I225000J0D01*
G01*
X108500000Y-61425000D01*
G75*
G02*
X108725000Y-61650000I0J-225000D01*
G01*
G37*
%TD*%
%TO.C,C3*%
G36*
G01*
X89800000Y-39525000D02*
X89800000Y-40475000D01*
G75*
G02*
X89550000Y-40725000I-250000J0D01*
G01*
X89050000Y-40725000D01*
G75*
G02*
X88800000Y-40475000I0J250000D01*
G01*
X88800000Y-39525000D01*
G75*
G02*
X89050000Y-39275000I250000J0D01*
G01*
X89550000Y-39275000D01*
G75*
G02*
X89800000Y-39525000I0J-250000D01*
G01*
G37*
G36*
G01*
X91700000Y-39525000D02*
X91700000Y-40475000D01*
G75*
G02*
X91450000Y-40725000I-250000J0D01*
G01*
X90950000Y-40725000D01*
G75*
G02*
X90700000Y-40475000I0J250000D01*
G01*
X90700000Y-39525000D01*
G75*
G02*
X90950000Y-39275000I250000J0D01*
G01*
X91450000Y-39275000D01*
G75*
G02*
X91700000Y-39525000I0J-250000D01*
G01*
G37*
%TD*%
%TO.C,C2*%
G36*
G01*
X110450000Y-70225000D02*
X110950000Y-70225000D01*
G75*
G02*
X111175000Y-70450000I0J-225000D01*
G01*
X111175000Y-70900000D01*
G75*
G02*
X110950000Y-71125000I-225000J0D01*
G01*
X110450000Y-71125000D01*
G75*
G02*
X110225000Y-70900000I0J225000D01*
G01*
X110225000Y-70450000D01*
G75*
G02*
X110450000Y-70225000I225000J0D01*
G01*
G37*
G36*
G01*
X110450000Y-68675000D02*
X110950000Y-68675000D01*
G75*
G02*
X111175000Y-68900000I0J-225000D01*
G01*
X111175000Y-69350000D01*
G75*
G02*
X110950000Y-69575000I-225000J0D01*
G01*
X110450000Y-69575000D01*
G75*
G02*
X110225000Y-69350000I0J225000D01*
G01*
X110225000Y-68900000D01*
G75*
G02*
X110450000Y-68675000I225000J0D01*
G01*
G37*
%TD*%
%TO.C,C1*%
G36*
G01*
X107750000Y-71775000D02*
X107750000Y-70825000D01*
G75*
G02*
X108000000Y-70575000I250000J0D01*
G01*
X108500000Y-70575000D01*
G75*
G02*
X108750000Y-70825000I0J-250000D01*
G01*
X108750000Y-71775000D01*
G75*
G02*
X108500000Y-72025000I-250000J0D01*
G01*
X108000000Y-72025000D01*
G75*
G02*
X107750000Y-71775000I0J250000D01*
G01*
G37*
G36*
G01*
X105850000Y-71775000D02*
X105850000Y-70825000D01*
G75*
G02*
X106100000Y-70575000I250000J0D01*
G01*
X106600000Y-70575000D01*
G75*
G02*
X106850000Y-70825000I0J-250000D01*
G01*
X106850000Y-71775000D01*
G75*
G02*
X106600000Y-72025000I-250000J0D01*
G01*
X106100000Y-72025000D01*
G75*
G02*
X105850000Y-71775000I0J250000D01*
G01*
G37*
%TD*%
M02*
