M48
; DRILL file {KiCad 5.1.10} date Mon Aug 16 03:58:41 2021
; FORMAT={-:-/ absolute / metric / decimal}
; #@! TF.CreationDate,2021-08-16T03:58:41-04:00
; #@! TF.GenerationSoftware,Kicad,Pcbnew,5.1.10
; #@! TF.FileFunction,Plated,1,2,PTH
FMAT,2
METRIC
T1C0.300
T2C0.850
T3C1.000
T4C1.100
T5C1.500
T6C2.100
%
G90
G05
T1
X79.27Y-43.73
X80.0Y-70.0
X80.0Y-75.0
X80.0Y-80.0
X80.0Y-85.0
X80.5Y-42.0
X80.5Y-46.0
X81.0Y-52.0
X81.0Y-59.0
X82.0Y-42.0
X82.0Y-44.0
X82.0Y-46.0
X82.75Y-48.475
X82.75Y-49.725
X84.0Y-42.0
X84.0Y-44.0
X84.0Y-46.0
X84.6Y-51.2
X85.0Y-65.0
X85.0Y-70.0
X85.0Y-85.0
X87.0Y-55.4
X88.25Y-40.0
X89.25Y-38.5
X89.25Y-41.25
X90.0Y-65.0
X90.0Y-70.0
X90.0Y-75.0
X90.2Y-61.2
X91.3Y-58.2
X91.5Y-44.25
X91.5Y-46.3
X91.8Y-50.5
X92.4Y-72.4
X92.7Y-51.5
X93.5Y-54.6
X93.6Y-76.2
X93.8Y-50.5
X93.8Y-67.5
X93.8Y-52.5
X94.0Y-41.5
X94.0Y-44.2
X94.0Y-46.6
X94.5Y-77.1
X94.8Y-81.8
X95.1Y-72.8
X95.254Y-52.5
X95.4Y-49.6
X95.6Y-69.65
X95.601Y-67.792
X95.7Y-83.6
X95.9Y-56.3
X96.4Y-67.823
X96.4Y-69.65
X97.1Y-66.7
X97.2Y-83.8
X97.3Y-85.6
X97.7Y-70.7
X97.9Y-52.1
X98.5Y-61.4
X98.5Y-67.9
X98.5Y-69.8
X98.5Y-81.0
X98.6Y-74.5
X98.6Y-76.8
X98.7Y-54.0
X99.23Y-51.17
X99.3Y-83.5
X99.8Y-66.3
X99.82Y-80.82
X100.25Y-79.75
X100.4Y-73.7
X100.45Y-71.9
X100.5Y-82.5
X100.7Y-61.7
X100.703Y-81.703
X100.9Y-68.1
X101.0Y-65.0
X101.8Y-57.3
X102.5Y-66.2
X102.5Y-70.0
X104.195Y-62.405
X104.3Y-70.1
X104.4Y-52.2
X105.0Y-75.0
X105.9Y-56.1
X106.5Y-65.7
X106.7Y-58.0
X106.7Y-60.6
X108.3Y-72.8
X109.2Y-38.5
X109.3Y-46.0
X109.4Y-71.3
X110.0Y-75.0
X110.0Y-85.0
X110.7Y-71.9
X111.2Y-46.0
X111.8Y-70.7
T2
X92.0Y-79.8
X92.0Y-84.0
X103.0Y-79.8
X103.0Y-84.0
T3
X101.0Y-54.0
X103.54Y-54.0
X106.08Y-54.0
X108.62Y-54.0
T4
X80.46Y-38.9
X80.46Y-49.1
X80.46Y-66.9
X80.46Y-77.1
T5
X40.25Y-82.5
X43.0Y-44.0
X51.0Y-44.0
X51.0Y-82.5
T6
X57.66Y-35.1
X57.66Y-63.1
X65.26Y-35.1
X65.26Y-63.1
X67.8Y-52.9
X67.8Y-80.9
T0
M30
