%FSLAX45Y45*%
G04 Gerber Fmt 4.5, Leading zero omitted, Abs format (unit mm)*
G04 Created by KiCad (PCBNEW 5.1.10) date 2021-08-16 03:58:41*
%MOMM*%
%LPD*%
G01*
G04 APERTURE LIST*
%TA.AperFunction,Profile*%
%ADD10C,0.050000*%
%TD*%
%ADD11C,0.200000*%
%ADD12C,0.300000*%
G04 APERTURE END LIST*
D10*
X8400000Y-3100000D02*
G75*
G02*
X8700000Y-3400000I0J-300000D01*
G01*
X2800000Y-3400000D02*
G75*
G02*
X3100000Y-3100000I300000J0D01*
G01*
X3100000Y-8700000D02*
G75*
G02*
X2800000Y-8400000I0J300000D01*
G01*
X11300000Y-8400000D02*
G75*
G02*
X11000000Y-8700000I-300000J0D01*
G01*
X11000000Y-3760000D02*
G75*
G02*
X11300000Y-4060000I0J-300000D01*
G01*
X7000000Y-4000000D02*
X5300000Y-4000000D01*
X7000000Y-3900000D02*
X7000000Y-4000000D01*
X5300000Y-3900000D02*
X7000000Y-3900000D01*
X5300000Y-4000000D02*
X5300000Y-3900000D01*
X7330000Y-4900000D02*
X6230000Y-4900000D01*
X7330000Y-5000000D02*
X7330000Y-4900000D01*
X6230000Y-5000000D02*
X7330000Y-5000000D01*
X6230000Y-4900000D02*
X6230000Y-5000000D01*
X8700000Y-3760000D02*
X11000000Y-3760000D01*
X8700000Y-3400000D02*
X8700000Y-3760000D01*
X11000000Y-8700000D02*
X3100000Y-8700000D01*
X11300000Y-4060000D02*
X11300000Y-8400000D01*
X3100000Y-3100000D02*
X8400000Y-3100000D01*
X2800000Y-8400000D02*
X2800000Y-3400000D01*
D11*
X7912000Y-4358000D02*
X7942000Y-4388000D01*
X7942000Y-4358000D02*
X7912000Y-4388000D01*
X7985000Y-6985000D02*
X8015000Y-7015000D01*
X8015000Y-6985000D02*
X7985000Y-7015000D01*
X7985000Y-7485000D02*
X8015000Y-7515000D01*
X8015000Y-7485000D02*
X7985000Y-7515000D01*
X7985000Y-7985000D02*
X8015000Y-8015000D01*
X8015000Y-7985000D02*
X7985000Y-8015000D01*
X7985000Y-8485000D02*
X8015000Y-8515000D01*
X8015000Y-8485000D02*
X7985000Y-8515000D01*
X8035000Y-4185000D02*
X8065000Y-4215000D01*
X8065000Y-4185000D02*
X8035000Y-4215000D01*
X8035000Y-4585000D02*
X8065000Y-4615000D01*
X8065000Y-4585000D02*
X8035000Y-4615000D01*
X8085000Y-5185000D02*
X8115000Y-5215000D01*
X8115000Y-5185000D02*
X8085000Y-5215000D01*
X8085000Y-5885000D02*
X8115000Y-5915000D01*
X8115000Y-5885000D02*
X8085000Y-5915000D01*
X8185000Y-4185000D02*
X8215000Y-4215000D01*
X8215000Y-4185000D02*
X8185000Y-4215000D01*
X8185000Y-4385000D02*
X8215000Y-4415000D01*
X8215000Y-4385000D02*
X8185000Y-4415000D01*
X8185000Y-4585000D02*
X8215000Y-4615000D01*
X8215000Y-4585000D02*
X8185000Y-4615000D01*
X8260000Y-4832500D02*
X8290000Y-4862500D01*
X8290000Y-4832500D02*
X8260000Y-4862500D01*
X8260000Y-4957500D02*
X8290000Y-4987500D01*
X8290000Y-4957500D02*
X8260000Y-4987500D01*
X8385000Y-4185000D02*
X8415000Y-4215000D01*
X8415000Y-4185000D02*
X8385000Y-4215000D01*
X8385000Y-4385000D02*
X8415000Y-4415000D01*
X8415000Y-4385000D02*
X8385000Y-4415000D01*
X8385000Y-4585000D02*
X8415000Y-4615000D01*
X8415000Y-4585000D02*
X8385000Y-4615000D01*
X8445000Y-5105000D02*
X8475000Y-5135000D01*
X8475000Y-5105000D02*
X8445000Y-5135000D01*
X8485000Y-6485000D02*
X8515000Y-6515000D01*
X8515000Y-6485000D02*
X8485000Y-6515000D01*
X8485000Y-6985000D02*
X8515000Y-7015000D01*
X8515000Y-6985000D02*
X8485000Y-7015000D01*
X8485000Y-8485000D02*
X8515000Y-8515000D01*
X8515000Y-8485000D02*
X8485000Y-8515000D01*
X8685000Y-5525000D02*
X8715000Y-5555000D01*
X8715000Y-5525000D02*
X8685000Y-5555000D01*
X8810000Y-3985000D02*
X8840000Y-4015000D01*
X8840000Y-3985000D02*
X8810000Y-4015000D01*
X8910000Y-3835000D02*
X8940000Y-3865000D01*
X8940000Y-3835000D02*
X8910000Y-3865000D01*
X8910000Y-4110000D02*
X8940000Y-4140000D01*
X8940000Y-4110000D02*
X8910000Y-4140000D01*
X8985000Y-6485000D02*
X9015000Y-6515000D01*
X9015000Y-6485000D02*
X8985000Y-6515000D01*
X8985000Y-6985000D02*
X9015000Y-7015000D01*
X9015000Y-6985000D02*
X8985000Y-7015000D01*
X8985000Y-7485000D02*
X9015000Y-7515000D01*
X9015000Y-7485000D02*
X8985000Y-7515000D01*
X9005000Y-6105000D02*
X9035000Y-6135000D01*
X9035000Y-6105000D02*
X9005000Y-6135000D01*
X9115000Y-5805000D02*
X9145000Y-5835000D01*
X9145000Y-5805000D02*
X9115000Y-5835000D01*
X9135000Y-4410000D02*
X9165000Y-4440000D01*
X9165000Y-4410000D02*
X9135000Y-4440000D01*
X9135000Y-4615000D02*
X9165000Y-4645000D01*
X9165000Y-4615000D02*
X9135000Y-4645000D01*
X9165000Y-5035000D02*
X9195000Y-5065000D01*
X9195000Y-5035000D02*
X9165000Y-5065000D01*
X9225000Y-7225000D02*
X9255000Y-7255000D01*
X9255000Y-7225000D02*
X9225000Y-7255000D01*
X9255000Y-5135000D02*
X9285000Y-5165000D01*
X9285000Y-5135000D02*
X9255000Y-5165000D01*
X9335000Y-5445000D02*
X9365000Y-5475000D01*
X9365000Y-5445000D02*
X9335000Y-5475000D01*
X9345000Y-7605000D02*
X9375000Y-7635000D01*
X9375000Y-7605000D02*
X9345000Y-7635000D01*
X9365000Y-5035000D02*
X9395000Y-5065000D01*
X9395000Y-5035000D02*
X9365000Y-5065000D01*
X9365000Y-6735000D02*
X9395000Y-6765000D01*
X9395000Y-6735000D02*
X9365000Y-6765000D01*
X9365000Y-5235000D02*
X9395000Y-5265000D01*
X9395000Y-5235000D02*
X9365000Y-5265000D01*
X9385000Y-4135000D02*
X9415000Y-4165000D01*
X9415000Y-4135000D02*
X9385000Y-4165000D01*
X9385000Y-4405000D02*
X9415000Y-4435000D01*
X9415000Y-4405000D02*
X9385000Y-4435000D01*
X9385000Y-4645000D02*
X9415000Y-4675000D01*
X9415000Y-4645000D02*
X9385000Y-4675000D01*
X9435000Y-7695000D02*
X9465000Y-7725000D01*
X9465000Y-7695000D02*
X9435000Y-7725000D01*
X9465000Y-8165000D02*
X9495000Y-8195000D01*
X9495000Y-8165000D02*
X9465000Y-8195000D01*
X9495000Y-7265000D02*
X9525000Y-7295000D01*
X9525000Y-7265000D02*
X9495000Y-7295000D01*
X9510401Y-5235000D02*
X9540401Y-5265000D01*
X9540401Y-5235000D02*
X9510401Y-5265000D01*
X9525000Y-4945000D02*
X9555000Y-4975000D01*
X9555000Y-4945000D02*
X9525000Y-4975000D01*
X9545000Y-6950000D02*
X9575000Y-6980000D01*
X9575000Y-6950000D02*
X9545000Y-6980000D01*
X9545059Y-6764236D02*
X9575059Y-6794236D01*
X9575059Y-6764236D02*
X9545059Y-6794236D01*
X9555000Y-8345000D02*
X9585000Y-8375000D01*
X9585000Y-8345000D02*
X9555000Y-8375000D01*
X9575000Y-5615000D02*
X9605000Y-5645000D01*
X9605000Y-5615000D02*
X9575000Y-5645000D01*
X9625000Y-6767299D02*
X9655000Y-6797299D01*
X9655000Y-6767299D02*
X9625000Y-6797299D01*
X9625000Y-6950000D02*
X9655000Y-6980000D01*
X9655000Y-6950000D02*
X9625000Y-6980000D01*
X9695000Y-6655000D02*
X9725000Y-6685000D01*
X9725000Y-6655000D02*
X9695000Y-6685000D01*
X9705000Y-8365000D02*
X9735000Y-8395000D01*
X9735000Y-8365000D02*
X9705000Y-8395000D01*
X9715000Y-8545000D02*
X9745000Y-8575000D01*
X9745000Y-8545000D02*
X9715000Y-8575000D01*
X9755000Y-7055000D02*
X9785000Y-7085000D01*
X9785000Y-7055000D02*
X9755000Y-7085000D01*
X9775000Y-5195000D02*
X9805000Y-5225000D01*
X9805000Y-5195000D02*
X9775000Y-5225000D01*
X9835000Y-6125000D02*
X9865000Y-6155000D01*
X9865000Y-6125000D02*
X9835000Y-6155000D01*
X9835000Y-6775000D02*
X9865000Y-6805000D01*
X9865000Y-6775000D02*
X9835000Y-6805000D01*
X9835000Y-6965000D02*
X9865000Y-6995000D01*
X9865000Y-6965000D02*
X9835000Y-6995000D01*
X9835000Y-8085000D02*
X9865000Y-8115000D01*
X9865000Y-8085000D02*
X9835000Y-8115000D01*
X9845000Y-7435000D02*
X9875000Y-7465000D01*
X9875000Y-7435000D02*
X9845000Y-7465000D01*
X9845000Y-7665000D02*
X9875000Y-7695000D01*
X9875000Y-7665000D02*
X9845000Y-7695000D01*
X9855000Y-5385000D02*
X9885000Y-5415000D01*
X9885000Y-5385000D02*
X9855000Y-5415000D01*
X9908033Y-5101967D02*
X9938033Y-5131967D01*
X9938033Y-5101967D02*
X9908033Y-5131967D01*
X9915000Y-8335000D02*
X9945000Y-8365000D01*
X9945000Y-8335000D02*
X9915000Y-8365000D01*
X9965000Y-6615000D02*
X9995000Y-6645000D01*
X9995000Y-6615000D02*
X9965000Y-6645000D01*
X9966956Y-8066956D02*
X9996956Y-8096956D01*
X9996956Y-8066956D02*
X9966956Y-8096956D01*
X10010000Y-7960000D02*
X10040000Y-7990000D01*
X10040000Y-7960000D02*
X10010000Y-7990000D01*
X10025000Y-7355000D02*
X10055000Y-7385000D01*
X10055000Y-7355000D02*
X10025000Y-7385000D01*
X10030000Y-7175000D02*
X10060000Y-7205000D01*
X10060000Y-7175000D02*
X10030000Y-7205000D01*
X10035000Y-8235000D02*
X10065000Y-8265000D01*
X10065000Y-8235000D02*
X10035000Y-8265000D01*
X10055000Y-6155000D02*
X10085000Y-6185000D01*
X10085000Y-6155000D02*
X10055000Y-6185000D01*
X10055344Y-8155344D02*
X10085344Y-8185344D01*
X10085344Y-8155344D02*
X10055344Y-8185344D01*
X10075000Y-6795000D02*
X10105000Y-6825000D01*
X10105000Y-6795000D02*
X10075000Y-6825000D01*
X10085000Y-6485000D02*
X10115000Y-6515000D01*
X10115000Y-6485000D02*
X10085000Y-6515000D01*
X10165000Y-5715000D02*
X10195000Y-5745000D01*
X10195000Y-5715000D02*
X10165000Y-5745000D01*
X10235000Y-6605000D02*
X10265000Y-6635000D01*
X10265000Y-6605000D02*
X10235000Y-6635000D01*
X10235000Y-6985000D02*
X10265000Y-7015000D01*
X10265000Y-6985000D02*
X10235000Y-7015000D01*
X10404500Y-6225500D02*
X10434500Y-6255500D01*
X10434500Y-6225500D02*
X10404500Y-6255500D01*
X10415000Y-6995000D02*
X10445000Y-7025000D01*
X10445000Y-6995000D02*
X10415000Y-7025000D01*
X10425000Y-5205000D02*
X10455000Y-5235000D01*
X10455000Y-5205000D02*
X10425000Y-5235000D01*
X10485000Y-7485000D02*
X10515000Y-7515000D01*
X10515000Y-7485000D02*
X10485000Y-7515000D01*
X10575000Y-5595000D02*
X10605000Y-5625000D01*
X10605000Y-5595000D02*
X10575000Y-5625000D01*
X10635000Y-6555000D02*
X10665000Y-6585000D01*
X10665000Y-6555000D02*
X10635000Y-6585000D01*
X10655000Y-5785000D02*
X10685000Y-5815000D01*
X10685000Y-5785000D02*
X10655000Y-5815000D01*
X10655000Y-6045000D02*
X10685000Y-6075000D01*
X10685000Y-6045000D02*
X10655000Y-6075000D01*
X10815000Y-7265000D02*
X10845000Y-7295000D01*
X10845000Y-7265000D02*
X10815000Y-7295000D01*
X10905000Y-3835000D02*
X10935000Y-3865000D01*
X10935000Y-3835000D02*
X10905000Y-3865000D01*
X10915000Y-4585000D02*
X10945000Y-4615000D01*
X10945000Y-4585000D02*
X10915000Y-4615000D01*
X10925000Y-7115000D02*
X10955000Y-7145000D01*
X10955000Y-7115000D02*
X10925000Y-7145000D01*
X10985000Y-7485000D02*
X11015000Y-7515000D01*
X11015000Y-7485000D02*
X10985000Y-7515000D01*
X10985000Y-8485000D02*
X11015000Y-8515000D01*
X11015000Y-8485000D02*
X10985000Y-8515000D01*
X11055000Y-7175000D02*
X11085000Y-7205000D01*
X11085000Y-7175000D02*
X11055000Y-7205000D01*
X11105000Y-4585000D02*
X11135000Y-4615000D01*
X11135000Y-4585000D02*
X11105000Y-4615000D01*
X11165000Y-7055000D02*
X11195000Y-7085000D01*
X11195000Y-7055000D02*
X11165000Y-7085000D01*
X9242500Y-7980000D02*
G75*
G03*
X9242500Y-7980000I-42500J0D01*
G01*
X9242500Y-8400000D02*
G75*
G03*
X9242500Y-8400000I-42500J0D01*
G01*
X10342500Y-7980000D02*
G75*
G03*
X10342500Y-7980000I-42500J0D01*
G01*
X10342500Y-8400000D02*
G75*
G03*
X10342500Y-8400000I-42500J0D01*
G01*
X10100000Y-5350000D02*
X10100000Y-5450000D01*
X10050000Y-5400000D02*
X10150000Y-5400000D01*
X10354000Y-5350000D02*
X10354000Y-5450000D01*
X10304000Y-5400000D02*
X10404000Y-5400000D01*
X10608000Y-5350000D02*
X10608000Y-5450000D01*
X10558000Y-5400000D02*
X10658000Y-5400000D01*
X10862000Y-5350000D02*
X10862000Y-5450000D01*
X10812000Y-5400000D02*
X10912000Y-5400000D01*
X8084891Y-3928891D02*
X8084891Y-3851109D01*
X8007109Y-3851109D01*
X8007109Y-3928891D01*
X8084891Y-3928891D01*
X8084891Y-4948891D02*
X8084891Y-4871109D01*
X8007109Y-4871109D01*
X8007109Y-4948891D01*
X8084891Y-4948891D01*
X8084891Y-6728891D02*
X8084891Y-6651109D01*
X8007109Y-6651109D01*
X8007109Y-6728891D01*
X8084891Y-6728891D01*
X8084891Y-7748891D02*
X8084891Y-7671109D01*
X8007109Y-7671109D01*
X8007109Y-7748891D01*
X8084891Y-7748891D01*
X4025000Y-8325000D02*
X4100000Y-8250000D01*
X4025000Y-8175000D01*
X3950000Y-8250000D01*
X4025000Y-8325000D01*
X4300000Y-4475000D02*
X4375000Y-4400000D01*
X4300000Y-4325000D01*
X4225000Y-4400000D01*
X4300000Y-4475000D01*
X5100000Y-4475000D02*
X5175000Y-4400000D01*
X5100000Y-4325000D01*
X5025000Y-4400000D01*
X5100000Y-4475000D01*
X5100000Y-8325000D02*
X5175000Y-8250000D01*
X5100000Y-8175000D01*
X5025000Y-8250000D01*
X5100000Y-8325000D01*
X5661000Y-3405000D02*
X5871000Y-3615000D01*
X5871000Y-3405000D02*
X5661000Y-3615000D01*
X5871000Y-3510000D02*
G75*
G03*
X5871000Y-3510000I-105000J0D01*
G01*
X5661000Y-6205000D02*
X5871000Y-6415000D01*
X5871000Y-6205000D02*
X5661000Y-6415000D01*
X5871000Y-6310000D02*
G75*
G03*
X5871000Y-6310000I-105000J0D01*
G01*
X6421000Y-3405000D02*
X6631000Y-3615000D01*
X6631000Y-3405000D02*
X6421000Y-3615000D01*
X6631000Y-3510000D02*
G75*
G03*
X6631000Y-3510000I-105000J0D01*
G01*
X6421000Y-6205000D02*
X6631000Y-6415000D01*
X6631000Y-6205000D02*
X6421000Y-6415000D01*
X6631000Y-6310000D02*
G75*
G03*
X6631000Y-6310000I-105000J0D01*
G01*
X6675000Y-5185000D02*
X6885000Y-5395000D01*
X6885000Y-5185000D02*
X6675000Y-5395000D01*
X6885000Y-5290000D02*
G75*
G03*
X6885000Y-5290000I-105000J0D01*
G01*
X6675000Y-7985000D02*
X6885000Y-8195000D01*
X6885000Y-7985000D02*
X6675000Y-8195000D01*
X6885000Y-8090000D02*
G75*
G03*
X6885000Y-8090000I-105000J0D01*
G01*
D12*
X3083928Y-9168214D02*
X3083928Y-8868214D01*
X3155357Y-8868214D01*
X3198214Y-8882500D01*
X3226786Y-8911072D01*
X3241071Y-8939643D01*
X3255357Y-8996786D01*
X3255357Y-9039643D01*
X3241071Y-9096786D01*
X3226786Y-9125357D01*
X3198214Y-9153929D01*
X3155357Y-9168214D01*
X3083928Y-9168214D01*
X3383928Y-9168214D02*
X3383928Y-8968214D01*
X3383928Y-9025357D02*
X3398214Y-8996786D01*
X3412500Y-8982500D01*
X3441071Y-8968214D01*
X3469643Y-8968214D01*
X3569643Y-9168214D02*
X3569643Y-8968214D01*
X3569643Y-8868214D02*
X3555357Y-8882500D01*
X3569643Y-8896786D01*
X3583928Y-8882500D01*
X3569643Y-8868214D01*
X3569643Y-8896786D01*
X3755357Y-9168214D02*
X3726786Y-9153929D01*
X3712500Y-9125357D01*
X3712500Y-8868214D01*
X3912500Y-9168214D02*
X3883928Y-9153929D01*
X3869643Y-9125357D01*
X3869643Y-8868214D01*
X4255357Y-9168214D02*
X4255357Y-8868214D01*
X4355357Y-9082500D01*
X4455357Y-8868214D01*
X4455357Y-9168214D01*
X4726786Y-9168214D02*
X4726786Y-9011072D01*
X4712500Y-8982500D01*
X4683928Y-8968214D01*
X4626786Y-8968214D01*
X4598214Y-8982500D01*
X4726786Y-9153929D02*
X4698214Y-9168214D01*
X4626786Y-9168214D01*
X4598214Y-9153929D01*
X4583928Y-9125357D01*
X4583928Y-9096786D01*
X4598214Y-9068214D01*
X4626786Y-9053929D01*
X4698214Y-9053929D01*
X4726786Y-9039643D01*
X4869643Y-8968214D02*
X4869643Y-9268214D01*
X4869643Y-8982500D02*
X4898214Y-8968214D01*
X4955357Y-8968214D01*
X4983928Y-8982500D01*
X4998214Y-8996786D01*
X5012500Y-9025357D01*
X5012500Y-9111072D01*
X4998214Y-9139643D01*
X4983928Y-9153929D01*
X4955357Y-9168214D01*
X4898214Y-9168214D01*
X4869643Y-9153929D01*
X5141071Y-9139643D02*
X5155357Y-9153929D01*
X5141071Y-9168214D01*
X5126786Y-9153929D01*
X5141071Y-9139643D01*
X5141071Y-9168214D01*
X5141071Y-8982500D02*
X5155357Y-8996786D01*
X5141071Y-9011072D01*
X5126786Y-8996786D01*
X5141071Y-8982500D01*
X5141071Y-9011072D01*
X2767500Y-9647500D02*
X2797500Y-9677500D01*
X2797500Y-9647500D02*
X2767500Y-9677500D01*
X3141071Y-9498214D02*
X3169643Y-9498214D01*
X3198214Y-9512500D01*
X3212500Y-9526786D01*
X3226786Y-9555357D01*
X3241071Y-9612500D01*
X3241071Y-9683929D01*
X3226786Y-9741072D01*
X3212500Y-9769643D01*
X3198214Y-9783929D01*
X3169643Y-9798214D01*
X3141071Y-9798214D01*
X3112500Y-9783929D01*
X3098214Y-9769643D01*
X3083928Y-9741072D01*
X3069643Y-9683929D01*
X3069643Y-9612500D01*
X3083928Y-9555357D01*
X3098214Y-9526786D01*
X3112500Y-9512500D01*
X3141071Y-9498214D01*
X3369643Y-9769643D02*
X3383928Y-9783929D01*
X3369643Y-9798214D01*
X3355357Y-9783929D01*
X3369643Y-9769643D01*
X3369643Y-9798214D01*
X3483928Y-9498214D02*
X3669643Y-9498214D01*
X3569643Y-9612500D01*
X3612500Y-9612500D01*
X3641071Y-9626786D01*
X3655357Y-9641072D01*
X3669643Y-9669643D01*
X3669643Y-9741072D01*
X3655357Y-9769643D01*
X3641071Y-9783929D01*
X3612500Y-9798214D01*
X3526786Y-9798214D01*
X3498214Y-9783929D01*
X3483928Y-9769643D01*
X3855357Y-9498214D02*
X3883928Y-9498214D01*
X3912500Y-9512500D01*
X3926786Y-9526786D01*
X3941071Y-9555357D01*
X3955357Y-9612500D01*
X3955357Y-9683929D01*
X3941071Y-9741072D01*
X3926786Y-9769643D01*
X3912500Y-9783929D01*
X3883928Y-9798214D01*
X3855357Y-9798214D01*
X3826786Y-9783929D01*
X3812500Y-9769643D01*
X3798214Y-9741072D01*
X3783928Y-9683929D01*
X3783928Y-9612500D01*
X3798214Y-9555357D01*
X3812500Y-9526786D01*
X3826786Y-9512500D01*
X3855357Y-9498214D01*
X4141071Y-9498214D02*
X4169643Y-9498214D01*
X4198214Y-9512500D01*
X4212500Y-9526786D01*
X4226786Y-9555357D01*
X4241071Y-9612500D01*
X4241071Y-9683929D01*
X4226786Y-9741072D01*
X4212500Y-9769643D01*
X4198214Y-9783929D01*
X4169643Y-9798214D01*
X4141071Y-9798214D01*
X4112500Y-9783929D01*
X4098214Y-9769643D01*
X4083928Y-9741072D01*
X4069643Y-9683929D01*
X4069643Y-9612500D01*
X4083928Y-9555357D01*
X4098214Y-9526786D01*
X4112500Y-9512500D01*
X4141071Y-9498214D01*
X4369643Y-9798214D02*
X4369643Y-9598214D01*
X4369643Y-9626786D02*
X4383928Y-9612500D01*
X4412500Y-9598214D01*
X4455357Y-9598214D01*
X4483928Y-9612500D01*
X4498214Y-9641072D01*
X4498214Y-9798214D01*
X4498214Y-9641072D02*
X4512500Y-9612500D01*
X4541071Y-9598214D01*
X4583928Y-9598214D01*
X4612500Y-9612500D01*
X4626786Y-9641072D01*
X4626786Y-9798214D01*
X4769643Y-9798214D02*
X4769643Y-9598214D01*
X4769643Y-9626786D02*
X4783928Y-9612500D01*
X4812500Y-9598214D01*
X4855357Y-9598214D01*
X4883928Y-9612500D01*
X4898214Y-9641072D01*
X4898214Y-9798214D01*
X4898214Y-9641072D02*
X4912500Y-9612500D01*
X4941071Y-9598214D01*
X4983928Y-9598214D01*
X5012500Y-9612500D01*
X5026786Y-9641072D01*
X5026786Y-9798214D01*
X5612500Y-9483929D02*
X5355357Y-9869643D01*
X5998214Y-9498214D02*
X6026786Y-9498214D01*
X6055357Y-9512500D01*
X6069643Y-9526786D01*
X6083928Y-9555357D01*
X6098214Y-9612500D01*
X6098214Y-9683929D01*
X6083928Y-9741072D01*
X6069643Y-9769643D01*
X6055357Y-9783929D01*
X6026786Y-9798214D01*
X5998214Y-9798214D01*
X5969643Y-9783929D01*
X5955357Y-9769643D01*
X5941071Y-9741072D01*
X5926786Y-9683929D01*
X5926786Y-9612500D01*
X5941071Y-9555357D01*
X5955357Y-9526786D01*
X5969643Y-9512500D01*
X5998214Y-9498214D01*
X6226786Y-9769643D02*
X6241071Y-9783929D01*
X6226786Y-9798214D01*
X6212500Y-9783929D01*
X6226786Y-9769643D01*
X6226786Y-9798214D01*
X6426786Y-9498214D02*
X6455357Y-9498214D01*
X6483928Y-9512500D01*
X6498214Y-9526786D01*
X6512500Y-9555357D01*
X6526786Y-9612500D01*
X6526786Y-9683929D01*
X6512500Y-9741072D01*
X6498214Y-9769643D01*
X6483928Y-9783929D01*
X6455357Y-9798214D01*
X6426786Y-9798214D01*
X6398214Y-9783929D01*
X6383928Y-9769643D01*
X6369643Y-9741072D01*
X6355357Y-9683929D01*
X6355357Y-9612500D01*
X6369643Y-9555357D01*
X6383928Y-9526786D01*
X6398214Y-9512500D01*
X6426786Y-9498214D01*
X6812500Y-9798214D02*
X6641071Y-9798214D01*
X6726786Y-9798214D02*
X6726786Y-9498214D01*
X6698214Y-9541072D01*
X6669643Y-9569643D01*
X6641071Y-9583929D01*
X7098214Y-9798214D02*
X6926786Y-9798214D01*
X7012500Y-9798214D02*
X7012500Y-9498214D01*
X6983928Y-9541072D01*
X6955357Y-9569643D01*
X6926786Y-9583929D01*
X7269643Y-9626786D02*
X7241071Y-9612500D01*
X7226786Y-9598214D01*
X7212500Y-9569643D01*
X7212500Y-9555357D01*
X7226786Y-9526786D01*
X7241071Y-9512500D01*
X7269643Y-9498214D01*
X7326786Y-9498214D01*
X7355357Y-9512500D01*
X7369643Y-9526786D01*
X7383928Y-9555357D01*
X7383928Y-9569643D01*
X7369643Y-9598214D01*
X7355357Y-9612500D01*
X7326786Y-9626786D01*
X7269643Y-9626786D01*
X7241071Y-9641072D01*
X7226786Y-9655357D01*
X7212500Y-9683929D01*
X7212500Y-9741072D01*
X7226786Y-9769643D01*
X7241071Y-9783929D01*
X7269643Y-9798214D01*
X7326786Y-9798214D01*
X7355357Y-9783929D01*
X7369643Y-9769643D01*
X7383928Y-9741072D01*
X7383928Y-9683929D01*
X7369643Y-9655357D01*
X7355357Y-9641072D01*
X7326786Y-9626786D01*
X7498214Y-9498214D02*
X7498214Y-9555357D01*
X7612500Y-9498214D02*
X7612500Y-9555357D01*
X8055357Y-9912500D02*
X8041071Y-9898214D01*
X8012500Y-9855357D01*
X7998214Y-9826786D01*
X7983928Y-9783929D01*
X7969643Y-9712500D01*
X7969643Y-9655357D01*
X7983928Y-9583929D01*
X7998214Y-9541072D01*
X8012500Y-9512500D01*
X8041071Y-9469643D01*
X8055357Y-9455357D01*
X8183928Y-9798214D02*
X8241071Y-9798214D01*
X8269643Y-9783929D01*
X8283928Y-9769643D01*
X8312500Y-9726786D01*
X8326786Y-9669643D01*
X8326786Y-9555357D01*
X8312500Y-9526786D01*
X8298214Y-9512500D01*
X8269643Y-9498214D01*
X8212500Y-9498214D01*
X8183928Y-9512500D01*
X8169643Y-9526786D01*
X8155357Y-9555357D01*
X8155357Y-9626786D01*
X8169643Y-9655357D01*
X8183928Y-9669643D01*
X8212500Y-9683929D01*
X8269643Y-9683929D01*
X8298214Y-9669643D01*
X8312500Y-9655357D01*
X8326786Y-9626786D01*
X8498214Y-9626786D02*
X8469643Y-9612500D01*
X8455357Y-9598214D01*
X8441071Y-9569643D01*
X8441071Y-9555357D01*
X8455357Y-9526786D01*
X8469643Y-9512500D01*
X8498214Y-9498214D01*
X8555357Y-9498214D01*
X8583928Y-9512500D01*
X8598214Y-9526786D01*
X8612500Y-9555357D01*
X8612500Y-9569643D01*
X8598214Y-9598214D01*
X8583928Y-9612500D01*
X8555357Y-9626786D01*
X8498214Y-9626786D01*
X8469643Y-9641072D01*
X8455357Y-9655357D01*
X8441071Y-9683929D01*
X8441071Y-9741072D01*
X8455357Y-9769643D01*
X8469643Y-9783929D01*
X8498214Y-9798214D01*
X8555357Y-9798214D01*
X8583928Y-9783929D01*
X8598214Y-9769643D01*
X8612500Y-9741072D01*
X8612500Y-9683929D01*
X8598214Y-9655357D01*
X8583928Y-9641072D01*
X8555357Y-9626786D01*
X8969643Y-9798214D02*
X8969643Y-9498214D01*
X9098214Y-9798214D02*
X9098214Y-9641072D01*
X9083928Y-9612500D01*
X9055357Y-9598214D01*
X9012500Y-9598214D01*
X8983928Y-9612500D01*
X8969643Y-9626786D01*
X9283928Y-9798214D02*
X9255357Y-9783929D01*
X9241071Y-9769643D01*
X9226786Y-9741072D01*
X9226786Y-9655357D01*
X9241071Y-9626786D01*
X9255357Y-9612500D01*
X9283928Y-9598214D01*
X9326786Y-9598214D01*
X9355357Y-9612500D01*
X9369643Y-9626786D01*
X9383928Y-9655357D01*
X9383928Y-9741072D01*
X9369643Y-9769643D01*
X9355357Y-9783929D01*
X9326786Y-9798214D01*
X9283928Y-9798214D01*
X9555357Y-9798214D02*
X9526786Y-9783929D01*
X9512500Y-9755357D01*
X9512500Y-9498214D01*
X9783928Y-9783929D02*
X9755357Y-9798214D01*
X9698214Y-9798214D01*
X9669643Y-9783929D01*
X9655357Y-9755357D01*
X9655357Y-9641072D01*
X9669643Y-9612500D01*
X9698214Y-9598214D01*
X9755357Y-9598214D01*
X9783928Y-9612500D01*
X9798214Y-9641072D01*
X9798214Y-9669643D01*
X9655357Y-9698214D01*
X9912500Y-9783929D02*
X9941071Y-9798214D01*
X9998214Y-9798214D01*
X10026786Y-9783929D01*
X10041071Y-9755357D01*
X10041071Y-9741072D01*
X10026786Y-9712500D01*
X9998214Y-9698214D01*
X9955357Y-9698214D01*
X9926786Y-9683929D01*
X9912500Y-9655357D01*
X9912500Y-9641072D01*
X9926786Y-9612500D01*
X9955357Y-9598214D01*
X9998214Y-9598214D01*
X10026786Y-9612500D01*
X10141071Y-9912500D02*
X10155357Y-9898214D01*
X10183928Y-9855357D01*
X10198214Y-9826786D01*
X10212500Y-9783929D01*
X10226786Y-9712500D01*
X10226786Y-9655357D01*
X10212500Y-9583929D01*
X10198214Y-9541072D01*
X10183928Y-9512500D01*
X10155357Y-9469643D01*
X10141071Y-9455357D01*
X2797500Y-10058500D02*
G75*
G03*
X2797500Y-10058500I-42500J0D01*
G01*
X3141071Y-9894214D02*
X3169643Y-9894214D01*
X3198214Y-9908500D01*
X3212500Y-9922786D01*
X3226786Y-9951357D01*
X3241071Y-10008500D01*
X3241071Y-10079929D01*
X3226786Y-10137072D01*
X3212500Y-10165643D01*
X3198214Y-10179929D01*
X3169643Y-10194214D01*
X3141071Y-10194214D01*
X3112500Y-10179929D01*
X3098214Y-10165643D01*
X3083928Y-10137072D01*
X3069643Y-10079929D01*
X3069643Y-10008500D01*
X3083928Y-9951357D01*
X3098214Y-9922786D01*
X3112500Y-9908500D01*
X3141071Y-9894214D01*
X3369643Y-10165643D02*
X3383928Y-10179929D01*
X3369643Y-10194214D01*
X3355357Y-10179929D01*
X3369643Y-10165643D01*
X3369643Y-10194214D01*
X3555357Y-10022786D02*
X3526786Y-10008500D01*
X3512500Y-9994214D01*
X3498214Y-9965643D01*
X3498214Y-9951357D01*
X3512500Y-9922786D01*
X3526786Y-9908500D01*
X3555357Y-9894214D01*
X3612500Y-9894214D01*
X3641071Y-9908500D01*
X3655357Y-9922786D01*
X3669643Y-9951357D01*
X3669643Y-9965643D01*
X3655357Y-9994214D01*
X3641071Y-10008500D01*
X3612500Y-10022786D01*
X3555357Y-10022786D01*
X3526786Y-10037072D01*
X3512500Y-10051357D01*
X3498214Y-10079929D01*
X3498214Y-10137072D01*
X3512500Y-10165643D01*
X3526786Y-10179929D01*
X3555357Y-10194214D01*
X3612500Y-10194214D01*
X3641071Y-10179929D01*
X3655357Y-10165643D01*
X3669643Y-10137072D01*
X3669643Y-10079929D01*
X3655357Y-10051357D01*
X3641071Y-10037072D01*
X3612500Y-10022786D01*
X3941071Y-9894214D02*
X3798214Y-9894214D01*
X3783928Y-10037072D01*
X3798214Y-10022786D01*
X3826786Y-10008500D01*
X3898214Y-10008500D01*
X3926786Y-10022786D01*
X3941071Y-10037072D01*
X3955357Y-10065643D01*
X3955357Y-10137072D01*
X3941071Y-10165643D01*
X3926786Y-10179929D01*
X3898214Y-10194214D01*
X3826786Y-10194214D01*
X3798214Y-10179929D01*
X3783928Y-10165643D01*
X4141071Y-9894214D02*
X4169643Y-9894214D01*
X4198214Y-9908500D01*
X4212500Y-9922786D01*
X4226786Y-9951357D01*
X4241071Y-10008500D01*
X4241071Y-10079929D01*
X4226786Y-10137072D01*
X4212500Y-10165643D01*
X4198214Y-10179929D01*
X4169643Y-10194214D01*
X4141071Y-10194214D01*
X4112500Y-10179929D01*
X4098214Y-10165643D01*
X4083928Y-10137072D01*
X4069643Y-10079929D01*
X4069643Y-10008500D01*
X4083928Y-9951357D01*
X4098214Y-9922786D01*
X4112500Y-9908500D01*
X4141071Y-9894214D01*
X4369643Y-10194214D02*
X4369643Y-9994214D01*
X4369643Y-10022786D02*
X4383928Y-10008500D01*
X4412500Y-9994214D01*
X4455357Y-9994214D01*
X4483928Y-10008500D01*
X4498214Y-10037072D01*
X4498214Y-10194214D01*
X4498214Y-10037072D02*
X4512500Y-10008500D01*
X4541071Y-9994214D01*
X4583928Y-9994214D01*
X4612500Y-10008500D01*
X4626786Y-10037072D01*
X4626786Y-10194214D01*
X4769643Y-10194214D02*
X4769643Y-9994214D01*
X4769643Y-10022786D02*
X4783928Y-10008500D01*
X4812500Y-9994214D01*
X4855357Y-9994214D01*
X4883928Y-10008500D01*
X4898214Y-10037072D01*
X4898214Y-10194214D01*
X4898214Y-10037072D02*
X4912500Y-10008500D01*
X4941071Y-9994214D01*
X4983928Y-9994214D01*
X5012500Y-10008500D01*
X5026786Y-10037072D01*
X5026786Y-10194214D01*
X5612500Y-9879929D02*
X5355357Y-10265643D01*
X5998214Y-9894214D02*
X6026786Y-9894214D01*
X6055357Y-9908500D01*
X6069643Y-9922786D01*
X6083928Y-9951357D01*
X6098214Y-10008500D01*
X6098214Y-10079929D01*
X6083928Y-10137072D01*
X6069643Y-10165643D01*
X6055357Y-10179929D01*
X6026786Y-10194214D01*
X5998214Y-10194214D01*
X5969643Y-10179929D01*
X5955357Y-10165643D01*
X5941071Y-10137072D01*
X5926786Y-10079929D01*
X5926786Y-10008500D01*
X5941071Y-9951357D01*
X5955357Y-9922786D01*
X5969643Y-9908500D01*
X5998214Y-9894214D01*
X6226786Y-10165643D02*
X6241071Y-10179929D01*
X6226786Y-10194214D01*
X6212500Y-10179929D01*
X6226786Y-10165643D01*
X6226786Y-10194214D01*
X6426786Y-9894214D02*
X6455357Y-9894214D01*
X6483928Y-9908500D01*
X6498214Y-9922786D01*
X6512500Y-9951357D01*
X6526786Y-10008500D01*
X6526786Y-10079929D01*
X6512500Y-10137072D01*
X6498214Y-10165643D01*
X6483928Y-10179929D01*
X6455357Y-10194214D01*
X6426786Y-10194214D01*
X6398214Y-10179929D01*
X6383928Y-10165643D01*
X6369643Y-10137072D01*
X6355357Y-10079929D01*
X6355357Y-10008500D01*
X6369643Y-9951357D01*
X6383928Y-9922786D01*
X6398214Y-9908500D01*
X6426786Y-9894214D01*
X6626786Y-9894214D02*
X6812500Y-9894214D01*
X6712500Y-10008500D01*
X6755357Y-10008500D01*
X6783928Y-10022786D01*
X6798214Y-10037072D01*
X6812500Y-10065643D01*
X6812500Y-10137072D01*
X6798214Y-10165643D01*
X6783928Y-10179929D01*
X6755357Y-10194214D01*
X6669643Y-10194214D01*
X6641071Y-10179929D01*
X6626786Y-10165643D01*
X6912500Y-9894214D02*
X7098214Y-9894214D01*
X6998214Y-10008500D01*
X7041071Y-10008500D01*
X7069643Y-10022786D01*
X7083928Y-10037072D01*
X7098214Y-10065643D01*
X7098214Y-10137072D01*
X7083928Y-10165643D01*
X7069643Y-10179929D01*
X7041071Y-10194214D01*
X6955357Y-10194214D01*
X6926786Y-10179929D01*
X6912500Y-10165643D01*
X7369643Y-9894214D02*
X7226786Y-9894214D01*
X7212500Y-10037072D01*
X7226786Y-10022786D01*
X7255357Y-10008500D01*
X7326786Y-10008500D01*
X7355357Y-10022786D01*
X7369643Y-10037072D01*
X7383928Y-10065643D01*
X7383928Y-10137072D01*
X7369643Y-10165643D01*
X7355357Y-10179929D01*
X7326786Y-10194214D01*
X7255357Y-10194214D01*
X7226786Y-10179929D01*
X7212500Y-10165643D01*
X7498214Y-9894214D02*
X7498214Y-9951357D01*
X7612500Y-9894214D02*
X7612500Y-9951357D01*
X8055357Y-10308500D02*
X8041071Y-10294214D01*
X8012500Y-10251357D01*
X7998214Y-10222786D01*
X7983928Y-10179929D01*
X7969643Y-10108500D01*
X7969643Y-10051357D01*
X7983928Y-9979929D01*
X7998214Y-9937072D01*
X8012500Y-9908500D01*
X8041071Y-9865643D01*
X8055357Y-9851357D01*
X8298214Y-9994214D02*
X8298214Y-10194214D01*
X8226786Y-9879929D02*
X8155357Y-10094214D01*
X8341071Y-10094214D01*
X8683928Y-10194214D02*
X8683928Y-9894214D01*
X8812500Y-10194214D02*
X8812500Y-10037072D01*
X8798214Y-10008500D01*
X8769643Y-9994214D01*
X8726786Y-9994214D01*
X8698214Y-10008500D01*
X8683928Y-10022786D01*
X8998214Y-10194214D02*
X8969643Y-10179929D01*
X8955357Y-10165643D01*
X8941071Y-10137072D01*
X8941071Y-10051357D01*
X8955357Y-10022786D01*
X8969643Y-10008500D01*
X8998214Y-9994214D01*
X9041071Y-9994214D01*
X9069643Y-10008500D01*
X9083928Y-10022786D01*
X9098214Y-10051357D01*
X9098214Y-10137072D01*
X9083928Y-10165643D01*
X9069643Y-10179929D01*
X9041071Y-10194214D01*
X8998214Y-10194214D01*
X9269643Y-10194214D02*
X9241071Y-10179929D01*
X9226786Y-10151357D01*
X9226786Y-9894214D01*
X9498214Y-10179929D02*
X9469643Y-10194214D01*
X9412500Y-10194214D01*
X9383928Y-10179929D01*
X9369643Y-10151357D01*
X9369643Y-10037072D01*
X9383928Y-10008500D01*
X9412500Y-9994214D01*
X9469643Y-9994214D01*
X9498214Y-10008500D01*
X9512500Y-10037072D01*
X9512500Y-10065643D01*
X9369643Y-10094214D01*
X9626786Y-10179929D02*
X9655357Y-10194214D01*
X9712500Y-10194214D01*
X9741071Y-10179929D01*
X9755357Y-10151357D01*
X9755357Y-10137072D01*
X9741071Y-10108500D01*
X9712500Y-10094214D01*
X9669643Y-10094214D01*
X9641071Y-10079929D01*
X9626786Y-10051357D01*
X9626786Y-10037072D01*
X9641071Y-10008500D01*
X9669643Y-9994214D01*
X9712500Y-9994214D01*
X9741071Y-10008500D01*
X9855357Y-10308500D02*
X9869643Y-10294214D01*
X9898214Y-10251357D01*
X9912500Y-10222786D01*
X9926786Y-10179929D01*
X9941071Y-10108500D01*
X9941071Y-10051357D01*
X9926786Y-9979929D01*
X9912500Y-9937072D01*
X9898214Y-9908500D01*
X9869643Y-9865643D01*
X9855357Y-9851357D01*
X2747500Y-10404500D02*
X2747500Y-10504500D01*
X2697500Y-10454500D02*
X2797500Y-10454500D01*
X3241071Y-10590214D02*
X3069643Y-10590214D01*
X3155357Y-10590214D02*
X3155357Y-10290214D01*
X3126786Y-10333072D01*
X3098214Y-10361643D01*
X3069643Y-10375929D01*
X3369643Y-10561643D02*
X3383928Y-10575929D01*
X3369643Y-10590214D01*
X3355357Y-10575929D01*
X3369643Y-10561643D01*
X3369643Y-10590214D01*
X3569643Y-10290214D02*
X3598214Y-10290214D01*
X3626786Y-10304500D01*
X3641071Y-10318786D01*
X3655357Y-10347357D01*
X3669643Y-10404500D01*
X3669643Y-10475929D01*
X3655357Y-10533072D01*
X3641071Y-10561643D01*
X3626786Y-10575929D01*
X3598214Y-10590214D01*
X3569643Y-10590214D01*
X3541071Y-10575929D01*
X3526786Y-10561643D01*
X3512500Y-10533072D01*
X3498214Y-10475929D01*
X3498214Y-10404500D01*
X3512500Y-10347357D01*
X3526786Y-10318786D01*
X3541071Y-10304500D01*
X3569643Y-10290214D01*
X3855357Y-10290214D02*
X3883928Y-10290214D01*
X3912500Y-10304500D01*
X3926786Y-10318786D01*
X3941071Y-10347357D01*
X3955357Y-10404500D01*
X3955357Y-10475929D01*
X3941071Y-10533072D01*
X3926786Y-10561643D01*
X3912500Y-10575929D01*
X3883928Y-10590214D01*
X3855357Y-10590214D01*
X3826786Y-10575929D01*
X3812500Y-10561643D01*
X3798214Y-10533072D01*
X3783928Y-10475929D01*
X3783928Y-10404500D01*
X3798214Y-10347357D01*
X3812500Y-10318786D01*
X3826786Y-10304500D01*
X3855357Y-10290214D01*
X4141071Y-10290214D02*
X4169643Y-10290214D01*
X4198214Y-10304500D01*
X4212500Y-10318786D01*
X4226786Y-10347357D01*
X4241071Y-10404500D01*
X4241071Y-10475929D01*
X4226786Y-10533072D01*
X4212500Y-10561643D01*
X4198214Y-10575929D01*
X4169643Y-10590214D01*
X4141071Y-10590214D01*
X4112500Y-10575929D01*
X4098214Y-10561643D01*
X4083928Y-10533072D01*
X4069643Y-10475929D01*
X4069643Y-10404500D01*
X4083928Y-10347357D01*
X4098214Y-10318786D01*
X4112500Y-10304500D01*
X4141071Y-10290214D01*
X4369643Y-10590214D02*
X4369643Y-10390214D01*
X4369643Y-10418786D02*
X4383928Y-10404500D01*
X4412500Y-10390214D01*
X4455357Y-10390214D01*
X4483928Y-10404500D01*
X4498214Y-10433072D01*
X4498214Y-10590214D01*
X4498214Y-10433072D02*
X4512500Y-10404500D01*
X4541071Y-10390214D01*
X4583928Y-10390214D01*
X4612500Y-10404500D01*
X4626786Y-10433072D01*
X4626786Y-10590214D01*
X4769643Y-10590214D02*
X4769643Y-10390214D01*
X4769643Y-10418786D02*
X4783928Y-10404500D01*
X4812500Y-10390214D01*
X4855357Y-10390214D01*
X4883928Y-10404500D01*
X4898214Y-10433072D01*
X4898214Y-10590214D01*
X4898214Y-10433072D02*
X4912500Y-10404500D01*
X4941071Y-10390214D01*
X4983928Y-10390214D01*
X5012500Y-10404500D01*
X5026786Y-10433072D01*
X5026786Y-10590214D01*
X5612500Y-10275929D02*
X5355357Y-10661643D01*
X5998214Y-10290214D02*
X6026786Y-10290214D01*
X6055357Y-10304500D01*
X6069643Y-10318786D01*
X6083928Y-10347357D01*
X6098214Y-10404500D01*
X6098214Y-10475929D01*
X6083928Y-10533072D01*
X6069643Y-10561643D01*
X6055357Y-10575929D01*
X6026786Y-10590214D01*
X5998214Y-10590214D01*
X5969643Y-10575929D01*
X5955357Y-10561643D01*
X5941071Y-10533072D01*
X5926786Y-10475929D01*
X5926786Y-10404500D01*
X5941071Y-10347357D01*
X5955357Y-10318786D01*
X5969643Y-10304500D01*
X5998214Y-10290214D01*
X6226786Y-10561643D02*
X6241071Y-10575929D01*
X6226786Y-10590214D01*
X6212500Y-10575929D01*
X6226786Y-10561643D01*
X6226786Y-10590214D01*
X6426786Y-10290214D02*
X6455357Y-10290214D01*
X6483928Y-10304500D01*
X6498214Y-10318786D01*
X6512500Y-10347357D01*
X6526786Y-10404500D01*
X6526786Y-10475929D01*
X6512500Y-10533072D01*
X6498214Y-10561643D01*
X6483928Y-10575929D01*
X6455357Y-10590214D01*
X6426786Y-10590214D01*
X6398214Y-10575929D01*
X6383928Y-10561643D01*
X6369643Y-10533072D01*
X6355357Y-10475929D01*
X6355357Y-10404500D01*
X6369643Y-10347357D01*
X6383928Y-10318786D01*
X6398214Y-10304500D01*
X6426786Y-10290214D01*
X6626786Y-10290214D02*
X6812500Y-10290214D01*
X6712500Y-10404500D01*
X6755357Y-10404500D01*
X6783928Y-10418786D01*
X6798214Y-10433072D01*
X6812500Y-10461643D01*
X6812500Y-10533072D01*
X6798214Y-10561643D01*
X6783928Y-10575929D01*
X6755357Y-10590214D01*
X6669643Y-10590214D01*
X6641071Y-10575929D01*
X6626786Y-10561643D01*
X6955357Y-10590214D02*
X7012500Y-10590214D01*
X7041071Y-10575929D01*
X7055357Y-10561643D01*
X7083928Y-10518786D01*
X7098214Y-10461643D01*
X7098214Y-10347357D01*
X7083928Y-10318786D01*
X7069643Y-10304500D01*
X7041071Y-10290214D01*
X6983928Y-10290214D01*
X6955357Y-10304500D01*
X6941071Y-10318786D01*
X6926786Y-10347357D01*
X6926786Y-10418786D01*
X6941071Y-10447357D01*
X6955357Y-10461643D01*
X6983928Y-10475929D01*
X7041071Y-10475929D01*
X7069643Y-10461643D01*
X7083928Y-10447357D01*
X7098214Y-10418786D01*
X7355357Y-10390214D02*
X7355357Y-10590214D01*
X7283928Y-10275929D02*
X7212500Y-10490214D01*
X7398214Y-10490214D01*
X7498214Y-10290214D02*
X7498214Y-10347357D01*
X7612500Y-10290214D02*
X7612500Y-10347357D01*
X8055357Y-10704500D02*
X8041071Y-10690214D01*
X8012500Y-10647357D01*
X7998214Y-10618786D01*
X7983928Y-10575929D01*
X7969643Y-10504500D01*
X7969643Y-10447357D01*
X7983928Y-10375929D01*
X7998214Y-10333072D01*
X8012500Y-10304500D01*
X8041071Y-10261643D01*
X8055357Y-10247357D01*
X8298214Y-10390214D02*
X8298214Y-10590214D01*
X8226786Y-10275929D02*
X8155357Y-10490214D01*
X8341071Y-10490214D01*
X8683928Y-10590214D02*
X8683928Y-10290214D01*
X8812500Y-10590214D02*
X8812500Y-10433072D01*
X8798214Y-10404500D01*
X8769643Y-10390214D01*
X8726786Y-10390214D01*
X8698214Y-10404500D01*
X8683928Y-10418786D01*
X8998214Y-10590214D02*
X8969643Y-10575929D01*
X8955357Y-10561643D01*
X8941071Y-10533072D01*
X8941071Y-10447357D01*
X8955357Y-10418786D01*
X8969643Y-10404500D01*
X8998214Y-10390214D01*
X9041071Y-10390214D01*
X9069643Y-10404500D01*
X9083928Y-10418786D01*
X9098214Y-10447357D01*
X9098214Y-10533072D01*
X9083928Y-10561643D01*
X9069643Y-10575929D01*
X9041071Y-10590214D01*
X8998214Y-10590214D01*
X9269643Y-10590214D02*
X9241071Y-10575929D01*
X9226786Y-10547357D01*
X9226786Y-10290214D01*
X9498214Y-10575929D02*
X9469643Y-10590214D01*
X9412500Y-10590214D01*
X9383928Y-10575929D01*
X9369643Y-10547357D01*
X9369643Y-10433072D01*
X9383928Y-10404500D01*
X9412500Y-10390214D01*
X9469643Y-10390214D01*
X9498214Y-10404500D01*
X9512500Y-10433072D01*
X9512500Y-10461643D01*
X9369643Y-10490214D01*
X9626786Y-10575929D02*
X9655357Y-10590214D01*
X9712500Y-10590214D01*
X9741071Y-10575929D01*
X9755357Y-10547357D01*
X9755357Y-10533072D01*
X9741071Y-10504500D01*
X9712500Y-10490214D01*
X9669643Y-10490214D01*
X9641071Y-10475929D01*
X9626786Y-10447357D01*
X9626786Y-10433072D01*
X9641071Y-10404500D01*
X9669643Y-10390214D01*
X9712500Y-10390214D01*
X9741071Y-10404500D01*
X9855357Y-10704500D02*
X9869643Y-10690214D01*
X9898214Y-10647357D01*
X9912500Y-10618786D01*
X9926786Y-10575929D01*
X9941071Y-10504500D01*
X9941071Y-10447357D01*
X9926786Y-10375929D01*
X9912500Y-10333072D01*
X9898214Y-10304500D01*
X9869643Y-10261643D01*
X9855357Y-10247357D01*
X2781391Y-10889391D02*
X2781391Y-10811609D01*
X2703609Y-10811609D01*
X2703609Y-10889391D01*
X2781391Y-10889391D01*
X3241071Y-10986214D02*
X3069643Y-10986214D01*
X3155357Y-10986214D02*
X3155357Y-10686214D01*
X3126786Y-10729072D01*
X3098214Y-10757643D01*
X3069643Y-10771929D01*
X3369643Y-10957643D02*
X3383928Y-10971929D01*
X3369643Y-10986214D01*
X3355357Y-10971929D01*
X3369643Y-10957643D01*
X3369643Y-10986214D01*
X3669643Y-10986214D02*
X3498214Y-10986214D01*
X3583928Y-10986214D02*
X3583928Y-10686214D01*
X3555357Y-10729072D01*
X3526786Y-10757643D01*
X3498214Y-10771929D01*
X3855357Y-10686214D02*
X3883928Y-10686214D01*
X3912500Y-10700500D01*
X3926786Y-10714786D01*
X3941071Y-10743357D01*
X3955357Y-10800500D01*
X3955357Y-10871929D01*
X3941071Y-10929072D01*
X3926786Y-10957643D01*
X3912500Y-10971929D01*
X3883928Y-10986214D01*
X3855357Y-10986214D01*
X3826786Y-10971929D01*
X3812500Y-10957643D01*
X3798214Y-10929072D01*
X3783928Y-10871929D01*
X3783928Y-10800500D01*
X3798214Y-10743357D01*
X3812500Y-10714786D01*
X3826786Y-10700500D01*
X3855357Y-10686214D01*
X4141071Y-10686214D02*
X4169643Y-10686214D01*
X4198214Y-10700500D01*
X4212500Y-10714786D01*
X4226786Y-10743357D01*
X4241071Y-10800500D01*
X4241071Y-10871929D01*
X4226786Y-10929072D01*
X4212500Y-10957643D01*
X4198214Y-10971929D01*
X4169643Y-10986214D01*
X4141071Y-10986214D01*
X4112500Y-10971929D01*
X4098214Y-10957643D01*
X4083928Y-10929072D01*
X4069643Y-10871929D01*
X4069643Y-10800500D01*
X4083928Y-10743357D01*
X4098214Y-10714786D01*
X4112500Y-10700500D01*
X4141071Y-10686214D01*
X4369643Y-10986214D02*
X4369643Y-10786214D01*
X4369643Y-10814786D02*
X4383928Y-10800500D01*
X4412500Y-10786214D01*
X4455357Y-10786214D01*
X4483928Y-10800500D01*
X4498214Y-10829072D01*
X4498214Y-10986214D01*
X4498214Y-10829072D02*
X4512500Y-10800500D01*
X4541071Y-10786214D01*
X4583928Y-10786214D01*
X4612500Y-10800500D01*
X4626786Y-10829072D01*
X4626786Y-10986214D01*
X4769643Y-10986214D02*
X4769643Y-10786214D01*
X4769643Y-10814786D02*
X4783928Y-10800500D01*
X4812500Y-10786214D01*
X4855357Y-10786214D01*
X4883928Y-10800500D01*
X4898214Y-10829072D01*
X4898214Y-10986214D01*
X4898214Y-10829072D02*
X4912500Y-10800500D01*
X4941071Y-10786214D01*
X4983928Y-10786214D01*
X5012500Y-10800500D01*
X5026786Y-10829072D01*
X5026786Y-10986214D01*
X5612500Y-10671929D02*
X5355357Y-11057643D01*
X5998214Y-10686214D02*
X6026786Y-10686214D01*
X6055357Y-10700500D01*
X6069643Y-10714786D01*
X6083928Y-10743357D01*
X6098214Y-10800500D01*
X6098214Y-10871929D01*
X6083928Y-10929072D01*
X6069643Y-10957643D01*
X6055357Y-10971929D01*
X6026786Y-10986214D01*
X5998214Y-10986214D01*
X5969643Y-10971929D01*
X5955357Y-10957643D01*
X5941071Y-10929072D01*
X5926786Y-10871929D01*
X5926786Y-10800500D01*
X5941071Y-10743357D01*
X5955357Y-10714786D01*
X5969643Y-10700500D01*
X5998214Y-10686214D01*
X6226786Y-10957643D02*
X6241071Y-10971929D01*
X6226786Y-10986214D01*
X6212500Y-10971929D01*
X6226786Y-10957643D01*
X6226786Y-10986214D01*
X6426786Y-10686214D02*
X6455357Y-10686214D01*
X6483928Y-10700500D01*
X6498214Y-10714786D01*
X6512500Y-10743357D01*
X6526786Y-10800500D01*
X6526786Y-10871929D01*
X6512500Y-10929072D01*
X6498214Y-10957643D01*
X6483928Y-10971929D01*
X6455357Y-10986214D01*
X6426786Y-10986214D01*
X6398214Y-10971929D01*
X6383928Y-10957643D01*
X6369643Y-10929072D01*
X6355357Y-10871929D01*
X6355357Y-10800500D01*
X6369643Y-10743357D01*
X6383928Y-10714786D01*
X6398214Y-10700500D01*
X6426786Y-10686214D01*
X6783928Y-10786214D02*
X6783928Y-10986214D01*
X6712500Y-10671929D02*
X6641071Y-10886214D01*
X6826786Y-10886214D01*
X6912500Y-10686214D02*
X7098214Y-10686214D01*
X6998214Y-10800500D01*
X7041071Y-10800500D01*
X7069643Y-10814786D01*
X7083928Y-10829072D01*
X7098214Y-10857643D01*
X7098214Y-10929072D01*
X7083928Y-10957643D01*
X7069643Y-10971929D01*
X7041071Y-10986214D01*
X6955357Y-10986214D01*
X6926786Y-10971929D01*
X6912500Y-10957643D01*
X7198214Y-10686214D02*
X7383928Y-10686214D01*
X7283928Y-10800500D01*
X7326786Y-10800500D01*
X7355357Y-10814786D01*
X7369643Y-10829072D01*
X7383928Y-10857643D01*
X7383928Y-10929072D01*
X7369643Y-10957643D01*
X7355357Y-10971929D01*
X7326786Y-10986214D01*
X7241071Y-10986214D01*
X7212500Y-10971929D01*
X7198214Y-10957643D01*
X7498214Y-10686214D02*
X7498214Y-10743357D01*
X7612500Y-10686214D02*
X7612500Y-10743357D01*
X8055357Y-11100500D02*
X8041071Y-11086214D01*
X8012500Y-11043357D01*
X7998214Y-11014786D01*
X7983928Y-10971929D01*
X7969643Y-10900500D01*
X7969643Y-10843357D01*
X7983928Y-10771929D01*
X7998214Y-10729072D01*
X8012500Y-10700500D01*
X8041071Y-10657643D01*
X8055357Y-10643357D01*
X8298214Y-10786214D02*
X8298214Y-10986214D01*
X8226786Y-10671929D02*
X8155357Y-10886214D01*
X8341071Y-10886214D01*
X8683928Y-10986214D02*
X8683928Y-10686214D01*
X8812500Y-10986214D02*
X8812500Y-10829072D01*
X8798214Y-10800500D01*
X8769643Y-10786214D01*
X8726786Y-10786214D01*
X8698214Y-10800500D01*
X8683928Y-10814786D01*
X8998214Y-10986214D02*
X8969643Y-10971929D01*
X8955357Y-10957643D01*
X8941071Y-10929072D01*
X8941071Y-10843357D01*
X8955357Y-10814786D01*
X8969643Y-10800500D01*
X8998214Y-10786214D01*
X9041071Y-10786214D01*
X9069643Y-10800500D01*
X9083928Y-10814786D01*
X9098214Y-10843357D01*
X9098214Y-10929072D01*
X9083928Y-10957643D01*
X9069643Y-10971929D01*
X9041071Y-10986214D01*
X8998214Y-10986214D01*
X9269643Y-10986214D02*
X9241071Y-10971929D01*
X9226786Y-10943357D01*
X9226786Y-10686214D01*
X9498214Y-10971929D02*
X9469643Y-10986214D01*
X9412500Y-10986214D01*
X9383928Y-10971929D01*
X9369643Y-10943357D01*
X9369643Y-10829072D01*
X9383928Y-10800500D01*
X9412500Y-10786214D01*
X9469643Y-10786214D01*
X9498214Y-10800500D01*
X9512500Y-10829072D01*
X9512500Y-10857643D01*
X9369643Y-10886214D01*
X9626786Y-10971929D02*
X9655357Y-10986214D01*
X9712500Y-10986214D01*
X9741071Y-10971929D01*
X9755357Y-10943357D01*
X9755357Y-10929072D01*
X9741071Y-10900500D01*
X9712500Y-10886214D01*
X9669643Y-10886214D01*
X9641071Y-10871929D01*
X9626786Y-10843357D01*
X9626786Y-10829072D01*
X9641071Y-10800500D01*
X9669643Y-10786214D01*
X9712500Y-10786214D01*
X9741071Y-10800500D01*
X9855357Y-11100500D02*
X9869643Y-11086214D01*
X9898214Y-11043357D01*
X9912500Y-11014786D01*
X9926786Y-10971929D01*
X9941071Y-10900500D01*
X9941071Y-10843357D01*
X9926786Y-10771929D01*
X9912500Y-10729072D01*
X9898214Y-10700500D01*
X9869643Y-10657643D01*
X9855357Y-10643357D01*
X2722500Y-11321500D02*
X2797500Y-11246500D01*
X2722500Y-11171500D01*
X2647500Y-11246500D01*
X2722500Y-11321500D01*
X3241071Y-11382214D02*
X3069643Y-11382214D01*
X3155357Y-11382214D02*
X3155357Y-11082214D01*
X3126786Y-11125072D01*
X3098214Y-11153643D01*
X3069643Y-11167929D01*
X3369643Y-11353643D02*
X3383928Y-11367929D01*
X3369643Y-11382214D01*
X3355357Y-11367929D01*
X3369643Y-11353643D01*
X3369643Y-11382214D01*
X3655357Y-11082214D02*
X3512500Y-11082214D01*
X3498214Y-11225071D01*
X3512500Y-11210786D01*
X3541071Y-11196500D01*
X3612500Y-11196500D01*
X3641071Y-11210786D01*
X3655357Y-11225071D01*
X3669643Y-11253643D01*
X3669643Y-11325071D01*
X3655357Y-11353643D01*
X3641071Y-11367929D01*
X3612500Y-11382214D01*
X3541071Y-11382214D01*
X3512500Y-11367929D01*
X3498214Y-11353643D01*
X3855357Y-11082214D02*
X3883928Y-11082214D01*
X3912500Y-11096500D01*
X3926786Y-11110786D01*
X3941071Y-11139357D01*
X3955357Y-11196500D01*
X3955357Y-11267929D01*
X3941071Y-11325071D01*
X3926786Y-11353643D01*
X3912500Y-11367929D01*
X3883928Y-11382214D01*
X3855357Y-11382214D01*
X3826786Y-11367929D01*
X3812500Y-11353643D01*
X3798214Y-11325071D01*
X3783928Y-11267929D01*
X3783928Y-11196500D01*
X3798214Y-11139357D01*
X3812500Y-11110786D01*
X3826786Y-11096500D01*
X3855357Y-11082214D01*
X4141071Y-11082214D02*
X4169643Y-11082214D01*
X4198214Y-11096500D01*
X4212500Y-11110786D01*
X4226786Y-11139357D01*
X4241071Y-11196500D01*
X4241071Y-11267929D01*
X4226786Y-11325071D01*
X4212500Y-11353643D01*
X4198214Y-11367929D01*
X4169643Y-11382214D01*
X4141071Y-11382214D01*
X4112500Y-11367929D01*
X4098214Y-11353643D01*
X4083928Y-11325071D01*
X4069643Y-11267929D01*
X4069643Y-11196500D01*
X4083928Y-11139357D01*
X4098214Y-11110786D01*
X4112500Y-11096500D01*
X4141071Y-11082214D01*
X4369643Y-11382214D02*
X4369643Y-11182214D01*
X4369643Y-11210786D02*
X4383928Y-11196500D01*
X4412500Y-11182214D01*
X4455357Y-11182214D01*
X4483928Y-11196500D01*
X4498214Y-11225071D01*
X4498214Y-11382214D01*
X4498214Y-11225071D02*
X4512500Y-11196500D01*
X4541071Y-11182214D01*
X4583928Y-11182214D01*
X4612500Y-11196500D01*
X4626786Y-11225071D01*
X4626786Y-11382214D01*
X4769643Y-11382214D02*
X4769643Y-11182214D01*
X4769643Y-11210786D02*
X4783928Y-11196500D01*
X4812500Y-11182214D01*
X4855357Y-11182214D01*
X4883928Y-11196500D01*
X4898214Y-11225071D01*
X4898214Y-11382214D01*
X4898214Y-11225071D02*
X4912500Y-11196500D01*
X4941071Y-11182214D01*
X4983928Y-11182214D01*
X5012500Y-11196500D01*
X5026786Y-11225071D01*
X5026786Y-11382214D01*
X5612500Y-11067929D02*
X5355357Y-11453643D01*
X5998214Y-11082214D02*
X6026786Y-11082214D01*
X6055357Y-11096500D01*
X6069643Y-11110786D01*
X6083928Y-11139357D01*
X6098214Y-11196500D01*
X6098214Y-11267929D01*
X6083928Y-11325071D01*
X6069643Y-11353643D01*
X6055357Y-11367929D01*
X6026786Y-11382214D01*
X5998214Y-11382214D01*
X5969643Y-11367929D01*
X5955357Y-11353643D01*
X5941071Y-11325071D01*
X5926786Y-11267929D01*
X5926786Y-11196500D01*
X5941071Y-11139357D01*
X5955357Y-11110786D01*
X5969643Y-11096500D01*
X5998214Y-11082214D01*
X6226786Y-11353643D02*
X6241071Y-11367929D01*
X6226786Y-11382214D01*
X6212500Y-11367929D01*
X6226786Y-11353643D01*
X6226786Y-11382214D01*
X6426786Y-11082214D02*
X6455357Y-11082214D01*
X6483928Y-11096500D01*
X6498214Y-11110786D01*
X6512500Y-11139357D01*
X6526786Y-11196500D01*
X6526786Y-11267929D01*
X6512500Y-11325071D01*
X6498214Y-11353643D01*
X6483928Y-11367929D01*
X6455357Y-11382214D01*
X6426786Y-11382214D01*
X6398214Y-11367929D01*
X6383928Y-11353643D01*
X6369643Y-11325071D01*
X6355357Y-11267929D01*
X6355357Y-11196500D01*
X6369643Y-11139357D01*
X6383928Y-11110786D01*
X6398214Y-11096500D01*
X6426786Y-11082214D01*
X6798214Y-11082214D02*
X6655357Y-11082214D01*
X6641071Y-11225071D01*
X6655357Y-11210786D01*
X6683928Y-11196500D01*
X6755357Y-11196500D01*
X6783928Y-11210786D01*
X6798214Y-11225071D01*
X6812500Y-11253643D01*
X6812500Y-11325071D01*
X6798214Y-11353643D01*
X6783928Y-11367929D01*
X6755357Y-11382214D01*
X6683928Y-11382214D01*
X6655357Y-11367929D01*
X6641071Y-11353643D01*
X6955357Y-11382214D02*
X7012500Y-11382214D01*
X7041071Y-11367929D01*
X7055357Y-11353643D01*
X7083928Y-11310786D01*
X7098214Y-11253643D01*
X7098214Y-11139357D01*
X7083928Y-11110786D01*
X7069643Y-11096500D01*
X7041071Y-11082214D01*
X6983928Y-11082214D01*
X6955357Y-11096500D01*
X6941071Y-11110786D01*
X6926786Y-11139357D01*
X6926786Y-11210786D01*
X6941071Y-11239357D01*
X6955357Y-11253643D01*
X6983928Y-11267929D01*
X7041071Y-11267929D01*
X7069643Y-11253643D01*
X7083928Y-11239357D01*
X7098214Y-11210786D01*
X7383928Y-11382214D02*
X7212500Y-11382214D01*
X7298214Y-11382214D02*
X7298214Y-11082214D01*
X7269643Y-11125072D01*
X7241071Y-11153643D01*
X7212500Y-11167929D01*
X7498214Y-11082214D02*
X7498214Y-11139357D01*
X7612500Y-11082214D02*
X7612500Y-11139357D01*
X8055357Y-11496500D02*
X8041071Y-11482214D01*
X8012500Y-11439357D01*
X7998214Y-11410786D01*
X7983928Y-11367929D01*
X7969643Y-11296500D01*
X7969643Y-11239357D01*
X7983928Y-11167929D01*
X7998214Y-11125072D01*
X8012500Y-11096500D01*
X8041071Y-11053643D01*
X8055357Y-11039357D01*
X8298214Y-11182214D02*
X8298214Y-11382214D01*
X8226786Y-11067929D02*
X8155357Y-11282214D01*
X8341071Y-11282214D01*
X8683928Y-11382214D02*
X8683928Y-11082214D01*
X8812500Y-11382214D02*
X8812500Y-11225071D01*
X8798214Y-11196500D01*
X8769643Y-11182214D01*
X8726786Y-11182214D01*
X8698214Y-11196500D01*
X8683928Y-11210786D01*
X8998214Y-11382214D02*
X8969643Y-11367929D01*
X8955357Y-11353643D01*
X8941071Y-11325071D01*
X8941071Y-11239357D01*
X8955357Y-11210786D01*
X8969643Y-11196500D01*
X8998214Y-11182214D01*
X9041071Y-11182214D01*
X9069643Y-11196500D01*
X9083928Y-11210786D01*
X9098214Y-11239357D01*
X9098214Y-11325071D01*
X9083928Y-11353643D01*
X9069643Y-11367929D01*
X9041071Y-11382214D01*
X8998214Y-11382214D01*
X9269643Y-11382214D02*
X9241071Y-11367929D01*
X9226786Y-11339357D01*
X9226786Y-11082214D01*
X9498214Y-11367929D02*
X9469643Y-11382214D01*
X9412500Y-11382214D01*
X9383928Y-11367929D01*
X9369643Y-11339357D01*
X9369643Y-11225071D01*
X9383928Y-11196500D01*
X9412500Y-11182214D01*
X9469643Y-11182214D01*
X9498214Y-11196500D01*
X9512500Y-11225071D01*
X9512500Y-11253643D01*
X9369643Y-11282214D01*
X9626786Y-11367929D02*
X9655357Y-11382214D01*
X9712500Y-11382214D01*
X9741071Y-11367929D01*
X9755357Y-11339357D01*
X9755357Y-11325071D01*
X9741071Y-11296500D01*
X9712500Y-11282214D01*
X9669643Y-11282214D01*
X9641071Y-11267929D01*
X9626786Y-11239357D01*
X9626786Y-11225071D01*
X9641071Y-11196500D01*
X9669643Y-11182214D01*
X9712500Y-11182214D01*
X9741071Y-11196500D01*
X9855357Y-11496500D02*
X9869643Y-11482214D01*
X9898214Y-11439357D01*
X9912500Y-11410786D01*
X9926786Y-11367929D01*
X9941071Y-11296500D01*
X9941071Y-11239357D01*
X9926786Y-11167929D01*
X9912500Y-11125072D01*
X9898214Y-11096500D01*
X9869643Y-11053643D01*
X9855357Y-11039357D01*
X2587500Y-11537500D02*
X2797500Y-11747500D01*
X2797500Y-11537500D02*
X2587500Y-11747500D01*
X2797500Y-11642500D02*
G75*
G03*
X2797500Y-11642500I-105000J0D01*
G01*
X3069643Y-11506786D02*
X3083928Y-11492500D01*
X3112500Y-11478214D01*
X3183928Y-11478214D01*
X3212500Y-11492500D01*
X3226786Y-11506786D01*
X3241071Y-11535357D01*
X3241071Y-11563929D01*
X3226786Y-11606786D01*
X3055357Y-11778214D01*
X3241071Y-11778214D01*
X3369643Y-11749643D02*
X3383928Y-11763929D01*
X3369643Y-11778214D01*
X3355357Y-11763929D01*
X3369643Y-11749643D01*
X3369643Y-11778214D01*
X3669643Y-11778214D02*
X3498214Y-11778214D01*
X3583928Y-11778214D02*
X3583928Y-11478214D01*
X3555357Y-11521071D01*
X3526786Y-11549643D01*
X3498214Y-11563929D01*
X3855357Y-11478214D02*
X3883928Y-11478214D01*
X3912500Y-11492500D01*
X3926786Y-11506786D01*
X3941071Y-11535357D01*
X3955357Y-11592500D01*
X3955357Y-11663929D01*
X3941071Y-11721071D01*
X3926786Y-11749643D01*
X3912500Y-11763929D01*
X3883928Y-11778214D01*
X3855357Y-11778214D01*
X3826786Y-11763929D01*
X3812500Y-11749643D01*
X3798214Y-11721071D01*
X3783928Y-11663929D01*
X3783928Y-11592500D01*
X3798214Y-11535357D01*
X3812500Y-11506786D01*
X3826786Y-11492500D01*
X3855357Y-11478214D01*
X4141071Y-11478214D02*
X4169643Y-11478214D01*
X4198214Y-11492500D01*
X4212500Y-11506786D01*
X4226786Y-11535357D01*
X4241071Y-11592500D01*
X4241071Y-11663929D01*
X4226786Y-11721071D01*
X4212500Y-11749643D01*
X4198214Y-11763929D01*
X4169643Y-11778214D01*
X4141071Y-11778214D01*
X4112500Y-11763929D01*
X4098214Y-11749643D01*
X4083928Y-11721071D01*
X4069643Y-11663929D01*
X4069643Y-11592500D01*
X4083928Y-11535357D01*
X4098214Y-11506786D01*
X4112500Y-11492500D01*
X4141071Y-11478214D01*
X4369643Y-11778214D02*
X4369643Y-11578214D01*
X4369643Y-11606786D02*
X4383928Y-11592500D01*
X4412500Y-11578214D01*
X4455357Y-11578214D01*
X4483928Y-11592500D01*
X4498214Y-11621071D01*
X4498214Y-11778214D01*
X4498214Y-11621071D02*
X4512500Y-11592500D01*
X4541071Y-11578214D01*
X4583928Y-11578214D01*
X4612500Y-11592500D01*
X4626786Y-11621071D01*
X4626786Y-11778214D01*
X4769643Y-11778214D02*
X4769643Y-11578214D01*
X4769643Y-11606786D02*
X4783928Y-11592500D01*
X4812500Y-11578214D01*
X4855357Y-11578214D01*
X4883928Y-11592500D01*
X4898214Y-11621071D01*
X4898214Y-11778214D01*
X4898214Y-11621071D02*
X4912500Y-11592500D01*
X4941071Y-11578214D01*
X4983928Y-11578214D01*
X5012500Y-11592500D01*
X5026786Y-11621071D01*
X5026786Y-11778214D01*
X5612500Y-11463929D02*
X5355357Y-11849643D01*
X5998214Y-11478214D02*
X6026786Y-11478214D01*
X6055357Y-11492500D01*
X6069643Y-11506786D01*
X6083928Y-11535357D01*
X6098214Y-11592500D01*
X6098214Y-11663929D01*
X6083928Y-11721071D01*
X6069643Y-11749643D01*
X6055357Y-11763929D01*
X6026786Y-11778214D01*
X5998214Y-11778214D01*
X5969643Y-11763929D01*
X5955357Y-11749643D01*
X5941071Y-11721071D01*
X5926786Y-11663929D01*
X5926786Y-11592500D01*
X5941071Y-11535357D01*
X5955357Y-11506786D01*
X5969643Y-11492500D01*
X5998214Y-11478214D01*
X6226786Y-11749643D02*
X6241071Y-11763929D01*
X6226786Y-11778214D01*
X6212500Y-11763929D01*
X6226786Y-11749643D01*
X6226786Y-11778214D01*
X6426786Y-11478214D02*
X6455357Y-11478214D01*
X6483928Y-11492500D01*
X6498214Y-11506786D01*
X6512500Y-11535357D01*
X6526786Y-11592500D01*
X6526786Y-11663929D01*
X6512500Y-11721071D01*
X6498214Y-11749643D01*
X6483928Y-11763929D01*
X6455357Y-11778214D01*
X6426786Y-11778214D01*
X6398214Y-11763929D01*
X6383928Y-11749643D01*
X6369643Y-11721071D01*
X6355357Y-11663929D01*
X6355357Y-11592500D01*
X6369643Y-11535357D01*
X6383928Y-11506786D01*
X6398214Y-11492500D01*
X6426786Y-11478214D01*
X6698214Y-11606786D02*
X6669643Y-11592500D01*
X6655357Y-11578214D01*
X6641071Y-11549643D01*
X6641071Y-11535357D01*
X6655357Y-11506786D01*
X6669643Y-11492500D01*
X6698214Y-11478214D01*
X6755357Y-11478214D01*
X6783928Y-11492500D01*
X6798214Y-11506786D01*
X6812500Y-11535357D01*
X6812500Y-11549643D01*
X6798214Y-11578214D01*
X6783928Y-11592500D01*
X6755357Y-11606786D01*
X6698214Y-11606786D01*
X6669643Y-11621071D01*
X6655357Y-11635357D01*
X6641071Y-11663929D01*
X6641071Y-11721071D01*
X6655357Y-11749643D01*
X6669643Y-11763929D01*
X6698214Y-11778214D01*
X6755357Y-11778214D01*
X6783928Y-11763929D01*
X6798214Y-11749643D01*
X6812500Y-11721071D01*
X6812500Y-11663929D01*
X6798214Y-11635357D01*
X6783928Y-11621071D01*
X6755357Y-11606786D01*
X6926786Y-11506786D02*
X6941071Y-11492500D01*
X6969643Y-11478214D01*
X7041071Y-11478214D01*
X7069643Y-11492500D01*
X7083928Y-11506786D01*
X7098214Y-11535357D01*
X7098214Y-11563929D01*
X7083928Y-11606786D01*
X6912500Y-11778214D01*
X7098214Y-11778214D01*
X7198214Y-11478214D02*
X7398214Y-11478214D01*
X7269643Y-11778214D01*
X7498214Y-11478214D02*
X7498214Y-11535357D01*
X7612500Y-11478214D02*
X7612500Y-11535357D01*
X8055357Y-11892500D02*
X8041071Y-11878214D01*
X8012500Y-11835357D01*
X7998214Y-11806786D01*
X7983928Y-11763929D01*
X7969643Y-11692500D01*
X7969643Y-11635357D01*
X7983928Y-11563929D01*
X7998214Y-11521071D01*
X8012500Y-11492500D01*
X8041071Y-11449643D01*
X8055357Y-11435357D01*
X8298214Y-11478214D02*
X8241071Y-11478214D01*
X8212500Y-11492500D01*
X8198214Y-11506786D01*
X8169643Y-11549643D01*
X8155357Y-11606786D01*
X8155357Y-11721071D01*
X8169643Y-11749643D01*
X8183928Y-11763929D01*
X8212500Y-11778214D01*
X8269643Y-11778214D01*
X8298214Y-11763929D01*
X8312500Y-11749643D01*
X8326786Y-11721071D01*
X8326786Y-11649643D01*
X8312500Y-11621071D01*
X8298214Y-11606786D01*
X8269643Y-11592500D01*
X8212500Y-11592500D01*
X8183928Y-11606786D01*
X8169643Y-11621071D01*
X8155357Y-11649643D01*
X8683928Y-11778214D02*
X8683928Y-11478214D01*
X8812500Y-11778214D02*
X8812500Y-11621071D01*
X8798214Y-11592500D01*
X8769643Y-11578214D01*
X8726786Y-11578214D01*
X8698214Y-11592500D01*
X8683928Y-11606786D01*
X8998214Y-11778214D02*
X8969643Y-11763929D01*
X8955357Y-11749643D01*
X8941071Y-11721071D01*
X8941071Y-11635357D01*
X8955357Y-11606786D01*
X8969643Y-11592500D01*
X8998214Y-11578214D01*
X9041071Y-11578214D01*
X9069643Y-11592500D01*
X9083928Y-11606786D01*
X9098214Y-11635357D01*
X9098214Y-11721071D01*
X9083928Y-11749643D01*
X9069643Y-11763929D01*
X9041071Y-11778214D01*
X8998214Y-11778214D01*
X9269643Y-11778214D02*
X9241071Y-11763929D01*
X9226786Y-11735357D01*
X9226786Y-11478214D01*
X9498214Y-11763929D02*
X9469643Y-11778214D01*
X9412500Y-11778214D01*
X9383928Y-11763929D01*
X9369643Y-11735357D01*
X9369643Y-11621071D01*
X9383928Y-11592500D01*
X9412500Y-11578214D01*
X9469643Y-11578214D01*
X9498214Y-11592500D01*
X9512500Y-11621071D01*
X9512500Y-11649643D01*
X9369643Y-11678214D01*
X9626786Y-11763929D02*
X9655357Y-11778214D01*
X9712500Y-11778214D01*
X9741071Y-11763929D01*
X9755357Y-11735357D01*
X9755357Y-11721071D01*
X9741071Y-11692500D01*
X9712500Y-11678214D01*
X9669643Y-11678214D01*
X9641071Y-11663929D01*
X9626786Y-11635357D01*
X9626786Y-11621071D01*
X9641071Y-11592500D01*
X9669643Y-11578214D01*
X9712500Y-11578214D01*
X9741071Y-11592500D01*
X9855357Y-11892500D02*
X9869643Y-11878214D01*
X9898214Y-11835357D01*
X9912500Y-11806786D01*
X9926786Y-11763929D01*
X9941071Y-11692500D01*
X9941071Y-11635357D01*
X9926786Y-11563929D01*
X9912500Y-11521071D01*
X9898214Y-11492500D01*
X9869643Y-11449643D01*
X9855357Y-11435357D01*
M02*
