%TF.GenerationSoftware,KiCad,Pcbnew,5.1.10*%
%TF.CreationDate,2021-08-16T03:58:39-04:00*%
%TF.ProjectId,wifi-50A-relay,77696669-2d35-4304-912d-72656c61792e,rev?*%
%TF.SameCoordinates,Original*%
%TF.FileFunction,Copper,L2,Bot*%
%TF.FilePolarity,Positive*%
%FSLAX46Y46*%
G04 Gerber Fmt 4.6, Leading zero omitted, Abs format (unit mm)*
G04 Created by KiCad (PCBNEW 5.1.10) date 2021-08-16 03:58:39*
%MOMM*%
%LPD*%
G01*
G04 APERTURE LIST*
%TA.AperFunction,ComponentPad*%
%ADD10R,3.000000X3.000000*%
%TD*%
%TA.AperFunction,ComponentPad*%
%ADD11C,3.000000*%
%TD*%
%TA.AperFunction,ComponentPad*%
%ADD12C,4.000000*%
%TD*%
%TA.AperFunction,ComponentPad*%
%ADD13C,2.000000*%
%TD*%
%TA.AperFunction,ComponentPad*%
%ADD14C,1.850000*%
%TD*%
%TA.AperFunction,ComponentPad*%
%ADD15O,1.700000X1.700000*%
%TD*%
%TA.AperFunction,ComponentPad*%
%ADD16R,1.700000X1.700000*%
%TD*%
%TA.AperFunction,ViaPad*%
%ADD17C,0.600000*%
%TD*%
%TA.AperFunction,Conductor*%
%ADD18C,0.250000*%
%TD*%
%TA.AperFunction,Conductor*%
%ADD19C,0.500000*%
%TD*%
%TA.AperFunction,Conductor*%
%ADD20C,0.127000*%
%TD*%
%TA.AperFunction,Conductor*%
%ADD21C,0.100000*%
%TD*%
G04 APERTURE END LIST*
D10*
%TO.P,PS1,1*%
%TO.N,/AC_PH_2*%
X40250000Y-82500000D03*
D11*
%TO.P,PS1,4*%
%TO.N,+12V*%
X43000000Y-44000000D03*
%TO.P,PS1,2*%
%TO.N,/AC_PH_1*%
X51000000Y-82500000D03*
%TO.P,PS1,3*%
%TO.N,GND*%
X51000000Y-44000000D03*
%TD*%
%TO.P,K2,A1*%
%TO.N,+12V*%
%TA.AperFunction,ComponentPad*%
G36*
G01*
X79460000Y-49600000D02*
X79460000Y-48600000D01*
G75*
G02*
X79960000Y-48100000I500000J0D01*
G01*
X80960000Y-48100000D01*
G75*
G02*
X81460000Y-48600000I0J-500000D01*
G01*
X81460000Y-49600000D01*
G75*
G02*
X80960000Y-50100000I-500000J0D01*
G01*
X79960000Y-50100000D01*
G75*
G02*
X79460000Y-49600000I0J500000D01*
G01*
G37*
%TD.AperFunction*%
D12*
%TO.P,K2,11*%
%TO.N,/AC_PH_2*%
X67800000Y-52900000D03*
%TO.P,K2,12*%
%TO.N,Net-(K2-Pad12)*%
X57660000Y-35100000D03*
%TO.P,K2,14*%
%TO.N,Net-(K2-Pad14)*%
X65260000Y-35100000D03*
D13*
%TO.P,K2,A2*%
%TO.N,Net-(D2-Pad2)*%
X80460000Y-38900000D03*
%TD*%
%TO.P,K1,A1*%
%TO.N,+12V*%
%TA.AperFunction,ComponentPad*%
G36*
G01*
X79460000Y-77600000D02*
X79460000Y-76600000D01*
G75*
G02*
X79960000Y-76100000I500000J0D01*
G01*
X80960000Y-76100000D01*
G75*
G02*
X81460000Y-76600000I0J-500000D01*
G01*
X81460000Y-77600000D01*
G75*
G02*
X80960000Y-78100000I-500000J0D01*
G01*
X79960000Y-78100000D01*
G75*
G02*
X79460000Y-77600000I0J500000D01*
G01*
G37*
%TD.AperFunction*%
D12*
%TO.P,K1,11*%
%TO.N,/AC_PH_1*%
X67800000Y-80900000D03*
%TO.P,K1,12*%
%TO.N,Net-(K1-Pad12)*%
X57660000Y-63100000D03*
%TO.P,K1,14*%
%TO.N,Net-(K1-Pad14)*%
X65260000Y-63100000D03*
D13*
%TO.P,K1,A2*%
%TO.N,Net-(D2-Pad2)*%
X80460000Y-66900000D03*
%TD*%
D14*
%TO.P,J3,2*%
%TO.N,GND*%
X103000000Y-79800000D03*
%TO.P,J3,1*%
%TO.N,Net-(C12-Pad1)*%
%TA.AperFunction,ComponentPad*%
G36*
G01*
X103675001Y-84925000D02*
X102324999Y-84925000D01*
G75*
G02*
X102075000Y-84675001I0J249999D01*
G01*
X102075000Y-83324999D01*
G75*
G02*
X102324999Y-83075000I249999J0D01*
G01*
X103675001Y-83075000D01*
G75*
G02*
X103925000Y-83324999I0J-249999D01*
G01*
X103925000Y-84675001D01*
G75*
G02*
X103675001Y-84925000I-249999J0D01*
G01*
G37*
%TD.AperFunction*%
%TD*%
%TO.P,J2,2*%
%TO.N,GND*%
X92000000Y-79800000D03*
%TO.P,J2,1*%
%TO.N,Net-(C11-Pad1)*%
%TA.AperFunction,ComponentPad*%
G36*
G01*
X92675001Y-84925000D02*
X91324999Y-84925000D01*
G75*
G02*
X91075000Y-84675001I0J249999D01*
G01*
X91075000Y-83324999D01*
G75*
G02*
X91324999Y-83075000I249999J0D01*
G01*
X92675001Y-83075000D01*
G75*
G02*
X92925000Y-83324999I0J-249999D01*
G01*
X92925000Y-84675001D01*
G75*
G02*
X92675001Y-84925000I-249999J0D01*
G01*
G37*
%TD.AperFunction*%
%TD*%
D15*
%TO.P,J1,4*%
%TO.N,GND*%
X108620000Y-54000000D03*
%TO.P,J1,3*%
%TO.N,Net-(J1-Pad3)*%
X106080000Y-54000000D03*
%TO.P,J1,2*%
%TO.N,Net-(J1-Pad2)*%
X103540000Y-54000000D03*
D16*
%TO.P,J1,1*%
%TO.N,+3V3*%
X101000000Y-54000000D03*
%TD*%
D17*
%TO.N,GND*%
X100400000Y-73700000D03*
X100450000Y-71900000D03*
X81000000Y-52000000D03*
X81000000Y-59000000D03*
X91500000Y-44250000D03*
X89250000Y-41250000D03*
X89250000Y-38500000D03*
X88250000Y-40000000D03*
X94000000Y-41500000D03*
X111200000Y-46000000D03*
X109300000Y-46000000D03*
X109200000Y-38500000D03*
X93800000Y-50500000D03*
X91800000Y-50500000D03*
X92700000Y-51500000D03*
X90200000Y-61200000D03*
X97200000Y-83800000D03*
X97300000Y-85600000D03*
X99300000Y-83500000D03*
X95700000Y-83600000D03*
X93600000Y-76200000D03*
X94500000Y-77100000D03*
X94800000Y-81800000D03*
X98600000Y-74500000D03*
X98600000Y-76800000D03*
X95100000Y-72800000D03*
X92400000Y-72400000D03*
X106700000Y-60600000D03*
X106700000Y-58000000D03*
X106500000Y-65700000D03*
X102500000Y-70000000D03*
X100900000Y-68100000D03*
X102500000Y-66200000D03*
X99800000Y-66300000D03*
X101000000Y-65000000D03*
X109400000Y-71300000D03*
X108300000Y-72800000D03*
X111800000Y-70700000D03*
X110700000Y-71900000D03*
X104400000Y-52200000D03*
X105900000Y-56100000D03*
X101800000Y-57300000D03*
X100700000Y-61700000D03*
X98700000Y-54000000D03*
X98500000Y-61400000D03*
X97700000Y-70700000D03*
X95900000Y-56300000D03*
X97100000Y-66700000D03*
X95400000Y-49600000D03*
X100500000Y-82500000D03*
X98500000Y-81000000D03*
X100250000Y-79750000D03*
X79269999Y-43730001D03*
X82000000Y-44000000D03*
X82000000Y-42000000D03*
X82000000Y-46000000D03*
X84000000Y-42000000D03*
X84000000Y-44000000D03*
X84000000Y-46000000D03*
X94000000Y-44200000D03*
X94000000Y-46600000D03*
X91500000Y-46300000D03*
X84600000Y-51200000D03*
X87000000Y-55400000D03*
X91300000Y-58200000D03*
X93800000Y-67500000D03*
X93500000Y-54600000D03*
X80000000Y-85000000D03*
X110000000Y-85000000D03*
X85000000Y-85000000D03*
X110000000Y-75000000D03*
X105000000Y-75000000D03*
X80000000Y-80000000D03*
X80000000Y-75000000D03*
X80000000Y-70000000D03*
X85000000Y-70000000D03*
X90000000Y-70000000D03*
X90000000Y-75000000D03*
X90000000Y-65000000D03*
X85000000Y-65000000D03*
%TO.N,+3V3*%
X98500000Y-67900000D03*
X98500000Y-69800000D03*
%TO.N,Net-(C7-Pad2)*%
X104300000Y-70100000D03*
X104195000Y-62405000D03*
%TO.N,Net-(D2-Pad2)*%
X80500000Y-42000000D03*
X80500000Y-46000000D03*
X82750000Y-48475000D03*
X82750000Y-49725000D03*
%TO.N,/SW*%
X97900000Y-52100000D03*
X99230331Y-51169669D03*
X93800001Y-52500000D03*
X95254011Y-52500000D03*
%TO.N,/SCL*%
X96400000Y-69650000D03*
X96400000Y-67822990D03*
%TO.N,/SDA*%
X95599997Y-69650000D03*
X95600585Y-67792360D03*
%TO.N,Net-(C12-Pad1)*%
X99819557Y-80819557D03*
X100703441Y-81703441D03*
%TD*%
D18*
%TO.N,GND*%
X100400000Y-74700000D02*
X100500000Y-74800000D01*
X100400000Y-73000000D02*
X100400000Y-74700000D01*
D19*
%TO.N,+3V3*%
X98500000Y-67900000D02*
X98500000Y-69800000D01*
D20*
%TO.N,Net-(C7-Pad2)*%
X104300000Y-62510000D02*
X104195000Y-62405000D01*
X104300000Y-70100000D02*
X104300000Y-62510000D01*
D18*
%TO.N,Net-(D2-Pad2)*%
X80500000Y-42000000D02*
X80500000Y-46000000D01*
X82750000Y-48475000D02*
X82750000Y-49725000D01*
D20*
%TO.N,/SW*%
X98830331Y-51169669D02*
X99230331Y-51169669D01*
X97900000Y-52100000D02*
X98830331Y-51169669D01*
X93800001Y-52500000D02*
X95254011Y-52500000D01*
%TO.N,/SCL*%
X96400000Y-69650000D02*
X96400000Y-67822990D01*
%TO.N,/SDA*%
X95599997Y-67792948D02*
X95600585Y-67792360D01*
X95599997Y-69650000D02*
X95599997Y-67792948D01*
%TO.N,Net-(C12-Pad1)*%
X99819557Y-80819557D02*
X100703441Y-81703441D01*
%TD*%
%TO.N,GND*%
X111012067Y-38144537D02*
X111469731Y-38387880D01*
X111871408Y-38715482D01*
X112201806Y-39114864D01*
X112448337Y-39570814D01*
X112601612Y-40065967D01*
X112657489Y-40597602D01*
X112657500Y-40600620D01*
X112657501Y-83983243D01*
X112605277Y-84515857D01*
X112455463Y-85012067D01*
X112212118Y-85469733D01*
X111884521Y-85871406D01*
X111485136Y-86201806D01*
X111029186Y-86448337D01*
X110534035Y-86601612D01*
X110002398Y-86657489D01*
X109999380Y-86657500D01*
X79063500Y-86657500D01*
X79063500Y-83324999D01*
X90755964Y-83324999D01*
X90755964Y-84675001D01*
X90766898Y-84786014D01*
X90799279Y-84892761D01*
X90851864Y-84991140D01*
X90922630Y-85077370D01*
X91008860Y-85148136D01*
X91107239Y-85200721D01*
X91213986Y-85233102D01*
X91324999Y-85244036D01*
X92675001Y-85244036D01*
X92786014Y-85233102D01*
X92892761Y-85200721D01*
X92991140Y-85148136D01*
X93077370Y-85077370D01*
X93148136Y-84991140D01*
X93200721Y-84892761D01*
X93233102Y-84786014D01*
X93244036Y-84675001D01*
X93244036Y-83324999D01*
X101755964Y-83324999D01*
X101755964Y-84675001D01*
X101766898Y-84786014D01*
X101799279Y-84892761D01*
X101851864Y-84991140D01*
X101922630Y-85077370D01*
X102008860Y-85148136D01*
X102107239Y-85200721D01*
X102213986Y-85233102D01*
X102324999Y-85244036D01*
X103675001Y-85244036D01*
X103786014Y-85233102D01*
X103892761Y-85200721D01*
X103991140Y-85148136D01*
X104077370Y-85077370D01*
X104148136Y-84991140D01*
X104200721Y-84892761D01*
X104233102Y-84786014D01*
X104244036Y-84675001D01*
X104244036Y-83324999D01*
X104233102Y-83213986D01*
X104200721Y-83107239D01*
X104148136Y-83008860D01*
X104077370Y-82922630D01*
X103991140Y-82851864D01*
X103892761Y-82799279D01*
X103786014Y-82766898D01*
X103675001Y-82755964D01*
X102324999Y-82755964D01*
X102213986Y-82766898D01*
X102107239Y-82799279D01*
X102008860Y-82851864D01*
X101922630Y-82922630D01*
X101851864Y-83008860D01*
X101799279Y-83107239D01*
X101766898Y-83213986D01*
X101755964Y-83324999D01*
X93244036Y-83324999D01*
X93233102Y-83213986D01*
X93200721Y-83107239D01*
X93148136Y-83008860D01*
X93077370Y-82922630D01*
X92991140Y-82851864D01*
X92892761Y-82799279D01*
X92786014Y-82766898D01*
X92675001Y-82755964D01*
X91324999Y-82755964D01*
X91213986Y-82766898D01*
X91107239Y-82799279D01*
X91008860Y-82851864D01*
X90922630Y-82922630D01*
X90851864Y-83008860D01*
X90799279Y-83107239D01*
X90766898Y-83213986D01*
X90755964Y-83324999D01*
X79063500Y-83324999D01*
X79063500Y-80670386D01*
X91219417Y-80670386D01*
X91318466Y-80846085D01*
X91535642Y-80958944D01*
X91770664Y-81027267D01*
X92014499Y-81048427D01*
X92257776Y-81021610D01*
X92491146Y-80947848D01*
X92681534Y-80846085D01*
X92730774Y-80758739D01*
X99202057Y-80758739D01*
X99202057Y-80880375D01*
X99225787Y-80999675D01*
X99272335Y-81112053D01*
X99339913Y-81213190D01*
X99425924Y-81299201D01*
X99527061Y-81366779D01*
X99639439Y-81413327D01*
X99758739Y-81437057D01*
X99880375Y-81437057D01*
X99895278Y-81434093D01*
X100088905Y-81627720D01*
X100085941Y-81642623D01*
X100085941Y-81764259D01*
X100109671Y-81883559D01*
X100156219Y-81995937D01*
X100223797Y-82097074D01*
X100309808Y-82183085D01*
X100410945Y-82250663D01*
X100523323Y-82297211D01*
X100642623Y-82320941D01*
X100764259Y-82320941D01*
X100883559Y-82297211D01*
X100995937Y-82250663D01*
X101097074Y-82183085D01*
X101183085Y-82097074D01*
X101250663Y-81995937D01*
X101297211Y-81883559D01*
X101320941Y-81764259D01*
X101320941Y-81642623D01*
X101297211Y-81523323D01*
X101250663Y-81410945D01*
X101183085Y-81309808D01*
X101097074Y-81223797D01*
X100995937Y-81156219D01*
X100883559Y-81109671D01*
X100764259Y-81085941D01*
X100642623Y-81085941D01*
X100627720Y-81088905D01*
X100434093Y-80895278D01*
X100437057Y-80880375D01*
X100437057Y-80758739D01*
X100419483Y-80670386D01*
X102219417Y-80670386D01*
X102318466Y-80846085D01*
X102535642Y-80958944D01*
X102770664Y-81027267D01*
X103014499Y-81048427D01*
X103257776Y-81021610D01*
X103491146Y-80947848D01*
X103681534Y-80846085D01*
X103780583Y-80670386D01*
X103000000Y-79889803D01*
X102219417Y-80670386D01*
X100419483Y-80670386D01*
X100413327Y-80639439D01*
X100366779Y-80527061D01*
X100299201Y-80425924D01*
X100213190Y-80339913D01*
X100112053Y-80272335D01*
X99999675Y-80225787D01*
X99880375Y-80202057D01*
X99758739Y-80202057D01*
X99639439Y-80225787D01*
X99527061Y-80272335D01*
X99425924Y-80339913D01*
X99339913Y-80425924D01*
X99272335Y-80527061D01*
X99225787Y-80639439D01*
X99202057Y-80758739D01*
X92730774Y-80758739D01*
X92780583Y-80670386D01*
X92000000Y-79889803D01*
X91219417Y-80670386D01*
X79063500Y-80670386D01*
X79063500Y-79814499D01*
X90751573Y-79814499D01*
X90778390Y-80057776D01*
X90852152Y-80291146D01*
X90953915Y-80481534D01*
X91129614Y-80580583D01*
X91910197Y-79800000D01*
X92089803Y-79800000D01*
X92870386Y-80580583D01*
X93046085Y-80481534D01*
X93158944Y-80264358D01*
X93227267Y-80029336D01*
X93245910Y-79814499D01*
X101751573Y-79814499D01*
X101778390Y-80057776D01*
X101852152Y-80291146D01*
X101953915Y-80481534D01*
X102129614Y-80580583D01*
X102910197Y-79800000D01*
X103089803Y-79800000D01*
X103870386Y-80580583D01*
X104046085Y-80481534D01*
X104158944Y-80264358D01*
X104227267Y-80029336D01*
X104248427Y-79785501D01*
X104221610Y-79542224D01*
X104147848Y-79308854D01*
X104046085Y-79118466D01*
X103870386Y-79019417D01*
X103089803Y-79800000D01*
X102910197Y-79800000D01*
X102129614Y-79019417D01*
X101953915Y-79118466D01*
X101841056Y-79335642D01*
X101772733Y-79570664D01*
X101751573Y-79814499D01*
X93245910Y-79814499D01*
X93248427Y-79785501D01*
X93221610Y-79542224D01*
X93147848Y-79308854D01*
X93046085Y-79118466D01*
X92870386Y-79019417D01*
X92089803Y-79800000D01*
X91910197Y-79800000D01*
X91129614Y-79019417D01*
X90953915Y-79118466D01*
X90841056Y-79335642D01*
X90772733Y-79570664D01*
X90751573Y-79814499D01*
X79063500Y-79814499D01*
X79063500Y-78929614D01*
X91219417Y-78929614D01*
X92000000Y-79710197D01*
X92780583Y-78929614D01*
X102219417Y-78929614D01*
X103000000Y-79710197D01*
X103780583Y-78929614D01*
X103681534Y-78753915D01*
X103464358Y-78641056D01*
X103229336Y-78572733D01*
X102985501Y-78551573D01*
X102742224Y-78578390D01*
X102508854Y-78652152D01*
X102318466Y-78753915D01*
X102219417Y-78929614D01*
X92780583Y-78929614D01*
X92681534Y-78753915D01*
X92464358Y-78641056D01*
X92229336Y-78572733D01*
X91985501Y-78551573D01*
X91742224Y-78578390D01*
X91508854Y-78652152D01*
X91318466Y-78753915D01*
X91219417Y-78929614D01*
X79063500Y-78929614D01*
X79063500Y-76600000D01*
X79140964Y-76600000D01*
X79140964Y-77600000D01*
X79156702Y-77759786D01*
X79203309Y-77913432D01*
X79278996Y-78055032D01*
X79380854Y-78179146D01*
X79504968Y-78281004D01*
X79646568Y-78356691D01*
X79800214Y-78403298D01*
X79960000Y-78419036D01*
X80960000Y-78419036D01*
X81119786Y-78403298D01*
X81273432Y-78356691D01*
X81415032Y-78281004D01*
X81539146Y-78179146D01*
X81641004Y-78055032D01*
X81716691Y-77913432D01*
X81763298Y-77759786D01*
X81779036Y-77600000D01*
X81779036Y-76600000D01*
X81763298Y-76440214D01*
X81716691Y-76286568D01*
X81641004Y-76144968D01*
X81539146Y-76020854D01*
X81415032Y-75918996D01*
X81273432Y-75843309D01*
X81119786Y-75796702D01*
X80960000Y-75780964D01*
X79960000Y-75780964D01*
X79800214Y-75796702D01*
X79646568Y-75843309D01*
X79504968Y-75918996D01*
X79380854Y-76020854D01*
X79278996Y-76144968D01*
X79203309Y-76286568D01*
X79156702Y-76440214D01*
X79140964Y-76600000D01*
X79063500Y-76600000D01*
X79063500Y-69589182D01*
X94982497Y-69589182D01*
X94982497Y-69710818D01*
X95006227Y-69830118D01*
X95052775Y-69942496D01*
X95120353Y-70043633D01*
X95206364Y-70129644D01*
X95307501Y-70197222D01*
X95419879Y-70243770D01*
X95539179Y-70267500D01*
X95660815Y-70267500D01*
X95780115Y-70243770D01*
X95892493Y-70197222D01*
X95993630Y-70129644D01*
X95999999Y-70123276D01*
X96006367Y-70129644D01*
X96107504Y-70197222D01*
X96219882Y-70243770D01*
X96339182Y-70267500D01*
X96460818Y-70267500D01*
X96580118Y-70243770D01*
X96692496Y-70197222D01*
X96793633Y-70129644D01*
X96879644Y-70043633D01*
X96947222Y-69942496D01*
X96993770Y-69830118D01*
X97017500Y-69710818D01*
X97017500Y-69589182D01*
X96993770Y-69469882D01*
X96947222Y-69357504D01*
X96879644Y-69256367D01*
X96793633Y-69170356D01*
X96781000Y-69161915D01*
X96781000Y-68311075D01*
X96793633Y-68302634D01*
X96879644Y-68216623D01*
X96947222Y-68115486D01*
X96993770Y-68003108D01*
X97017500Y-67883808D01*
X97017500Y-67839182D01*
X97882500Y-67839182D01*
X97882500Y-67960818D01*
X97906230Y-68080118D01*
X97932500Y-68143540D01*
X97932501Y-69556458D01*
X97906230Y-69619882D01*
X97882500Y-69739182D01*
X97882500Y-69860818D01*
X97906230Y-69980118D01*
X97952778Y-70092496D01*
X98020356Y-70193633D01*
X98106367Y-70279644D01*
X98207504Y-70347222D01*
X98319882Y-70393770D01*
X98439182Y-70417500D01*
X98560818Y-70417500D01*
X98680118Y-70393770D01*
X98792496Y-70347222D01*
X98893633Y-70279644D01*
X98979644Y-70193633D01*
X99047222Y-70092496D01*
X99093770Y-69980118D01*
X99117500Y-69860818D01*
X99117500Y-69739182D01*
X99093770Y-69619882D01*
X99067500Y-69556460D01*
X99067500Y-68143540D01*
X99093770Y-68080118D01*
X99117500Y-67960818D01*
X99117500Y-67839182D01*
X99093770Y-67719882D01*
X99047222Y-67607504D01*
X98979644Y-67506367D01*
X98893633Y-67420356D01*
X98792496Y-67352778D01*
X98680118Y-67306230D01*
X98560818Y-67282500D01*
X98439182Y-67282500D01*
X98319882Y-67306230D01*
X98207504Y-67352778D01*
X98106367Y-67420356D01*
X98020356Y-67506367D01*
X97952778Y-67607504D01*
X97906230Y-67719882D01*
X97882500Y-67839182D01*
X97017500Y-67839182D01*
X97017500Y-67762172D01*
X96993770Y-67642872D01*
X96947222Y-67530494D01*
X96879644Y-67429357D01*
X96793633Y-67343346D01*
X96692496Y-67275768D01*
X96580118Y-67229220D01*
X96460818Y-67205490D01*
X96339182Y-67205490D01*
X96219882Y-67229220D01*
X96107504Y-67275768D01*
X96017446Y-67335944D01*
X95994218Y-67312716D01*
X95893081Y-67245138D01*
X95780703Y-67198590D01*
X95661403Y-67174860D01*
X95539767Y-67174860D01*
X95420467Y-67198590D01*
X95308089Y-67245138D01*
X95206952Y-67312716D01*
X95120941Y-67398727D01*
X95053363Y-67499864D01*
X95006815Y-67612242D01*
X94983085Y-67731542D01*
X94983085Y-67853178D01*
X95006815Y-67972478D01*
X95053363Y-68084856D01*
X95120941Y-68185993D01*
X95206952Y-68272004D01*
X95218998Y-68280053D01*
X95218997Y-69161915D01*
X95206364Y-69170356D01*
X95120353Y-69256367D01*
X95052775Y-69357504D01*
X95006227Y-69469882D01*
X94982497Y-69589182D01*
X79063500Y-69589182D01*
X79063500Y-66770238D01*
X79142500Y-66770238D01*
X79142500Y-67029762D01*
X79193131Y-67284301D01*
X79292446Y-67524070D01*
X79436631Y-67739857D01*
X79620143Y-67923369D01*
X79835930Y-68067554D01*
X80075699Y-68166869D01*
X80330238Y-68217500D01*
X80589762Y-68217500D01*
X80844301Y-68166869D01*
X81084070Y-68067554D01*
X81299857Y-67923369D01*
X81483369Y-67739857D01*
X81627554Y-67524070D01*
X81726869Y-67284301D01*
X81777500Y-67029762D01*
X81777500Y-66770238D01*
X81726869Y-66515699D01*
X81627554Y-66275930D01*
X81483369Y-66060143D01*
X81299857Y-65876631D01*
X81084070Y-65732446D01*
X80844301Y-65633131D01*
X80589762Y-65582500D01*
X80330238Y-65582500D01*
X80075699Y-65633131D01*
X79835930Y-65732446D01*
X79620143Y-65876631D01*
X79436631Y-66060143D01*
X79292446Y-66275930D01*
X79193131Y-66515699D01*
X79142500Y-66770238D01*
X79063500Y-66770238D01*
X79063500Y-62344182D01*
X103577500Y-62344182D01*
X103577500Y-62465818D01*
X103601230Y-62585118D01*
X103647778Y-62697496D01*
X103715356Y-62798633D01*
X103801367Y-62884644D01*
X103902504Y-62952222D01*
X103919001Y-62959055D01*
X103919000Y-69611915D01*
X103906367Y-69620356D01*
X103820356Y-69706367D01*
X103752778Y-69807504D01*
X103706230Y-69919882D01*
X103682500Y-70039182D01*
X103682500Y-70160818D01*
X103706230Y-70280118D01*
X103752778Y-70392496D01*
X103820356Y-70493633D01*
X103906367Y-70579644D01*
X104007504Y-70647222D01*
X104119882Y-70693770D01*
X104239182Y-70717500D01*
X104360818Y-70717500D01*
X104480118Y-70693770D01*
X104592496Y-70647222D01*
X104693633Y-70579644D01*
X104779644Y-70493633D01*
X104847222Y-70392496D01*
X104893770Y-70280118D01*
X104917500Y-70160818D01*
X104917500Y-70039182D01*
X104893770Y-69919882D01*
X104847222Y-69807504D01*
X104779644Y-69706367D01*
X104693633Y-69620356D01*
X104681000Y-69611915D01*
X104681000Y-62789121D01*
X104742222Y-62697496D01*
X104788770Y-62585118D01*
X104812500Y-62465818D01*
X104812500Y-62344182D01*
X104788770Y-62224882D01*
X104742222Y-62112504D01*
X104674644Y-62011367D01*
X104588633Y-61925356D01*
X104487496Y-61857778D01*
X104375118Y-61811230D01*
X104255818Y-61787500D01*
X104134182Y-61787500D01*
X104014882Y-61811230D01*
X103902504Y-61857778D01*
X103801367Y-61925356D01*
X103715356Y-62011367D01*
X103647778Y-62112504D01*
X103601230Y-62224882D01*
X103577500Y-62344182D01*
X79063500Y-62344182D01*
X79063500Y-53150000D01*
X99830964Y-53150000D01*
X99830964Y-54850000D01*
X99837094Y-54912241D01*
X99855249Y-54972090D01*
X99884731Y-55027247D01*
X99924407Y-55075593D01*
X99972753Y-55115269D01*
X100027910Y-55144751D01*
X100087759Y-55162906D01*
X100150000Y-55169036D01*
X101850000Y-55169036D01*
X101912241Y-55162906D01*
X101972090Y-55144751D01*
X102027247Y-55115269D01*
X102075593Y-55075593D01*
X102115269Y-55027247D01*
X102144751Y-54972090D01*
X102162906Y-54912241D01*
X102169036Y-54850000D01*
X102169036Y-53885011D01*
X102372500Y-53885011D01*
X102372500Y-54114989D01*
X102417366Y-54340547D01*
X102505375Y-54553019D01*
X102633144Y-54744238D01*
X102795762Y-54906856D01*
X102986981Y-55034625D01*
X103199453Y-55122634D01*
X103425011Y-55167500D01*
X103654989Y-55167500D01*
X103880547Y-55122634D01*
X104093019Y-55034625D01*
X104284238Y-54906856D01*
X104446856Y-54744238D01*
X104574625Y-54553019D01*
X104662634Y-54340547D01*
X104707500Y-54114989D01*
X104707500Y-53885011D01*
X104912500Y-53885011D01*
X104912500Y-54114989D01*
X104957366Y-54340547D01*
X105045375Y-54553019D01*
X105173144Y-54744238D01*
X105335762Y-54906856D01*
X105526981Y-55034625D01*
X105739453Y-55122634D01*
X105965011Y-55167500D01*
X106194989Y-55167500D01*
X106420547Y-55122634D01*
X106633019Y-55034625D01*
X106824238Y-54906856D01*
X106986856Y-54744238D01*
X107114625Y-54553019D01*
X107202634Y-54340547D01*
X107221622Y-54245086D01*
X107478511Y-54245086D01*
X107548258Y-54463070D01*
X107659192Y-54663259D01*
X107807049Y-54837959D01*
X107986147Y-54980457D01*
X108189604Y-55085276D01*
X108374915Y-55141486D01*
X108556500Y-55086271D01*
X108556500Y-54063500D01*
X108683500Y-54063500D01*
X108683500Y-55086271D01*
X108865085Y-55141486D01*
X109050396Y-55085276D01*
X109253853Y-54980457D01*
X109432951Y-54837959D01*
X109580808Y-54663259D01*
X109691742Y-54463070D01*
X109761489Y-54245086D01*
X109706400Y-54063500D01*
X108683500Y-54063500D01*
X108556500Y-54063500D01*
X107533600Y-54063500D01*
X107478511Y-54245086D01*
X107221622Y-54245086D01*
X107247500Y-54114989D01*
X107247500Y-53885011D01*
X107221623Y-53754914D01*
X107478511Y-53754914D01*
X107533600Y-53936500D01*
X108556500Y-53936500D01*
X108556500Y-52913729D01*
X108683500Y-52913729D01*
X108683500Y-53936500D01*
X109706400Y-53936500D01*
X109761489Y-53754914D01*
X109691742Y-53536930D01*
X109580808Y-53336741D01*
X109432951Y-53162041D01*
X109253853Y-53019543D01*
X109050396Y-52914724D01*
X108865085Y-52858514D01*
X108683500Y-52913729D01*
X108556500Y-52913729D01*
X108374915Y-52858514D01*
X108189604Y-52914724D01*
X107986147Y-53019543D01*
X107807049Y-53162041D01*
X107659192Y-53336741D01*
X107548258Y-53536930D01*
X107478511Y-53754914D01*
X107221623Y-53754914D01*
X107202634Y-53659453D01*
X107114625Y-53446981D01*
X106986856Y-53255762D01*
X106824238Y-53093144D01*
X106633019Y-52965375D01*
X106420547Y-52877366D01*
X106194989Y-52832500D01*
X105965011Y-52832500D01*
X105739453Y-52877366D01*
X105526981Y-52965375D01*
X105335762Y-53093144D01*
X105173144Y-53255762D01*
X105045375Y-53446981D01*
X104957366Y-53659453D01*
X104912500Y-53885011D01*
X104707500Y-53885011D01*
X104662634Y-53659453D01*
X104574625Y-53446981D01*
X104446856Y-53255762D01*
X104284238Y-53093144D01*
X104093019Y-52965375D01*
X103880547Y-52877366D01*
X103654989Y-52832500D01*
X103425011Y-52832500D01*
X103199453Y-52877366D01*
X102986981Y-52965375D01*
X102795762Y-53093144D01*
X102633144Y-53255762D01*
X102505375Y-53446981D01*
X102417366Y-53659453D01*
X102372500Y-53885011D01*
X102169036Y-53885011D01*
X102169036Y-53150000D01*
X102162906Y-53087759D01*
X102144751Y-53027910D01*
X102115269Y-52972753D01*
X102075593Y-52924407D01*
X102027247Y-52884731D01*
X101972090Y-52855249D01*
X101912241Y-52837094D01*
X101850000Y-52830964D01*
X100150000Y-52830964D01*
X100087759Y-52837094D01*
X100027910Y-52855249D01*
X99972753Y-52884731D01*
X99924407Y-52924407D01*
X99884731Y-52972753D01*
X99855249Y-53027910D01*
X99837094Y-53087759D01*
X99830964Y-53150000D01*
X79063500Y-53150000D01*
X79063500Y-52439182D01*
X93182501Y-52439182D01*
X93182501Y-52560818D01*
X93206231Y-52680118D01*
X93252779Y-52792496D01*
X93320357Y-52893633D01*
X93406368Y-52979644D01*
X93507505Y-53047222D01*
X93619883Y-53093770D01*
X93739183Y-53117500D01*
X93860819Y-53117500D01*
X93980119Y-53093770D01*
X94092497Y-53047222D01*
X94193634Y-52979644D01*
X94279645Y-52893633D01*
X94288086Y-52881000D01*
X94765926Y-52881000D01*
X94774367Y-52893633D01*
X94860378Y-52979644D01*
X94961515Y-53047222D01*
X95073893Y-53093770D01*
X95193193Y-53117500D01*
X95314829Y-53117500D01*
X95434129Y-53093770D01*
X95546507Y-53047222D01*
X95647644Y-52979644D01*
X95733655Y-52893633D01*
X95801233Y-52792496D01*
X95847781Y-52680118D01*
X95871511Y-52560818D01*
X95871511Y-52439182D01*
X95847781Y-52319882D01*
X95801233Y-52207504D01*
X95733655Y-52106367D01*
X95666470Y-52039182D01*
X97282500Y-52039182D01*
X97282500Y-52160818D01*
X97306230Y-52280118D01*
X97352778Y-52392496D01*
X97420356Y-52493633D01*
X97506367Y-52579644D01*
X97607504Y-52647222D01*
X97719882Y-52693770D01*
X97839182Y-52717500D01*
X97960818Y-52717500D01*
X98080118Y-52693770D01*
X98192496Y-52647222D01*
X98293633Y-52579644D01*
X98379644Y-52493633D01*
X98447222Y-52392496D01*
X98493770Y-52280118D01*
X98517500Y-52160818D01*
X98517500Y-52039182D01*
X98514536Y-52024279D01*
X98868351Y-51670463D01*
X98937835Y-51716891D01*
X99050213Y-51763439D01*
X99169513Y-51787169D01*
X99291149Y-51787169D01*
X99410449Y-51763439D01*
X99522827Y-51716891D01*
X99623964Y-51649313D01*
X99709975Y-51563302D01*
X99777553Y-51462165D01*
X99824101Y-51349787D01*
X99847831Y-51230487D01*
X99847831Y-51108851D01*
X99824101Y-50989551D01*
X99777553Y-50877173D01*
X99709975Y-50776036D01*
X99623964Y-50690025D01*
X99522827Y-50622447D01*
X99410449Y-50575899D01*
X99291149Y-50552169D01*
X99169513Y-50552169D01*
X99050213Y-50575899D01*
X98937835Y-50622447D01*
X98836698Y-50690025D01*
X98750687Y-50776036D01*
X98734220Y-50800680D01*
X98683823Y-50815968D01*
X98617634Y-50851347D01*
X98588303Y-50875419D01*
X98559620Y-50898958D01*
X98547690Y-50913495D01*
X97975721Y-51485464D01*
X97960818Y-51482500D01*
X97839182Y-51482500D01*
X97719882Y-51506230D01*
X97607504Y-51552778D01*
X97506367Y-51620356D01*
X97420356Y-51706367D01*
X97352778Y-51807504D01*
X97306230Y-51919882D01*
X97282500Y-52039182D01*
X95666470Y-52039182D01*
X95647644Y-52020356D01*
X95546507Y-51952778D01*
X95434129Y-51906230D01*
X95314829Y-51882500D01*
X95193193Y-51882500D01*
X95073893Y-51906230D01*
X94961515Y-51952778D01*
X94860378Y-52020356D01*
X94774367Y-52106367D01*
X94765926Y-52119000D01*
X94288086Y-52119000D01*
X94279645Y-52106367D01*
X94193634Y-52020356D01*
X94092497Y-51952778D01*
X93980119Y-51906230D01*
X93860819Y-51882500D01*
X93739183Y-51882500D01*
X93619883Y-51906230D01*
X93507505Y-51952778D01*
X93406368Y-52020356D01*
X93320357Y-52106367D01*
X93252779Y-52207504D01*
X93206231Y-52319882D01*
X93182501Y-52439182D01*
X79063500Y-52439182D01*
X79063500Y-48600000D01*
X79140964Y-48600000D01*
X79140964Y-49600000D01*
X79156702Y-49759786D01*
X79203309Y-49913432D01*
X79278996Y-50055032D01*
X79380854Y-50179146D01*
X79504968Y-50281004D01*
X79646568Y-50356691D01*
X79800214Y-50403298D01*
X79960000Y-50419036D01*
X80960000Y-50419036D01*
X81119786Y-50403298D01*
X81273432Y-50356691D01*
X81415032Y-50281004D01*
X81539146Y-50179146D01*
X81641004Y-50055032D01*
X81716691Y-49913432D01*
X81763298Y-49759786D01*
X81779036Y-49600000D01*
X81779036Y-48600000D01*
X81763298Y-48440214D01*
X81755402Y-48414182D01*
X82132500Y-48414182D01*
X82132500Y-48535818D01*
X82156230Y-48655118D01*
X82202778Y-48767496D01*
X82270356Y-48868633D01*
X82307500Y-48905777D01*
X82307501Y-49294222D01*
X82270356Y-49331367D01*
X82202778Y-49432504D01*
X82156230Y-49544882D01*
X82132500Y-49664182D01*
X82132500Y-49785818D01*
X82156230Y-49905118D01*
X82202778Y-50017496D01*
X82270356Y-50118633D01*
X82356367Y-50204644D01*
X82457504Y-50272222D01*
X82569882Y-50318770D01*
X82689182Y-50342500D01*
X82810818Y-50342500D01*
X82930118Y-50318770D01*
X83042496Y-50272222D01*
X83143633Y-50204644D01*
X83229644Y-50118633D01*
X83297222Y-50017496D01*
X83343770Y-49905118D01*
X83367500Y-49785818D01*
X83367500Y-49664182D01*
X83343770Y-49544882D01*
X83297222Y-49432504D01*
X83229644Y-49331367D01*
X83192500Y-49294223D01*
X83192500Y-48905777D01*
X83229644Y-48868633D01*
X83297222Y-48767496D01*
X83343770Y-48655118D01*
X83367500Y-48535818D01*
X83367500Y-48414182D01*
X83343770Y-48294882D01*
X83297222Y-48182504D01*
X83229644Y-48081367D01*
X83143633Y-47995356D01*
X83042496Y-47927778D01*
X82930118Y-47881230D01*
X82810818Y-47857500D01*
X82689182Y-47857500D01*
X82569882Y-47881230D01*
X82457504Y-47927778D01*
X82356367Y-47995356D01*
X82270356Y-48081367D01*
X82202778Y-48182504D01*
X82156230Y-48294882D01*
X82132500Y-48414182D01*
X81755402Y-48414182D01*
X81716691Y-48286568D01*
X81641004Y-48144968D01*
X81539146Y-48020854D01*
X81415032Y-47918996D01*
X81273432Y-47843309D01*
X81119786Y-47796702D01*
X80960000Y-47780964D01*
X79960000Y-47780964D01*
X79800214Y-47796702D01*
X79646568Y-47843309D01*
X79504968Y-47918996D01*
X79380854Y-48020854D01*
X79278996Y-48144968D01*
X79203309Y-48286568D01*
X79156702Y-48440214D01*
X79140964Y-48600000D01*
X79063500Y-48600000D01*
X79063500Y-41939182D01*
X79882500Y-41939182D01*
X79882500Y-42060818D01*
X79906230Y-42180118D01*
X79952778Y-42292496D01*
X80020356Y-42393633D01*
X80057500Y-42430777D01*
X80057501Y-45569222D01*
X80020356Y-45606367D01*
X79952778Y-45707504D01*
X79906230Y-45819882D01*
X79882500Y-45939182D01*
X79882500Y-46060818D01*
X79906230Y-46180118D01*
X79952778Y-46292496D01*
X80020356Y-46393633D01*
X80106367Y-46479644D01*
X80207504Y-46547222D01*
X80319882Y-46593770D01*
X80439182Y-46617500D01*
X80560818Y-46617500D01*
X80680118Y-46593770D01*
X80792496Y-46547222D01*
X80893633Y-46479644D01*
X80979644Y-46393633D01*
X81047222Y-46292496D01*
X81093770Y-46180118D01*
X81117500Y-46060818D01*
X81117500Y-45939182D01*
X81093770Y-45819882D01*
X81047222Y-45707504D01*
X80979644Y-45606367D01*
X80942500Y-45569223D01*
X80942500Y-42430777D01*
X80979644Y-42393633D01*
X81047222Y-42292496D01*
X81093770Y-42180118D01*
X81117500Y-42060818D01*
X81117500Y-41939182D01*
X81093770Y-41819882D01*
X81047222Y-41707504D01*
X80979644Y-41606367D01*
X80893633Y-41520356D01*
X80792496Y-41452778D01*
X80680118Y-41406230D01*
X80560818Y-41382500D01*
X80439182Y-41382500D01*
X80319882Y-41406230D01*
X80207504Y-41452778D01*
X80106367Y-41520356D01*
X80020356Y-41606367D01*
X79952778Y-41707504D01*
X79906230Y-41819882D01*
X79882500Y-41939182D01*
X79063500Y-41939182D01*
X79063500Y-40002265D01*
X79083371Y-39724433D01*
X79142098Y-39454468D01*
X79199675Y-39300099D01*
X79292446Y-39524070D01*
X79436631Y-39739857D01*
X79620143Y-39923369D01*
X79835930Y-40067554D01*
X80075699Y-40166869D01*
X80330238Y-40217500D01*
X80589762Y-40217500D01*
X80844301Y-40166869D01*
X81084070Y-40067554D01*
X81299857Y-39923369D01*
X81483369Y-39739857D01*
X81627554Y-39524070D01*
X81726869Y-39284301D01*
X81777500Y-39029762D01*
X81777500Y-38770238D01*
X81726869Y-38515699D01*
X81627554Y-38275930D01*
X81485612Y-38063500D01*
X110743659Y-38063500D01*
X111012067Y-38144537D01*
%TA.AperFunction,Conductor*%
D21*
G36*
X111012067Y-38144537D02*
G01*
X111469731Y-38387880D01*
X111871408Y-38715482D01*
X112201806Y-39114864D01*
X112448337Y-39570814D01*
X112601612Y-40065967D01*
X112657489Y-40597602D01*
X112657500Y-40600620D01*
X112657501Y-83983243D01*
X112605277Y-84515857D01*
X112455463Y-85012067D01*
X112212118Y-85469733D01*
X111884521Y-85871406D01*
X111485136Y-86201806D01*
X111029186Y-86448337D01*
X110534035Y-86601612D01*
X110002398Y-86657489D01*
X109999380Y-86657500D01*
X79063500Y-86657500D01*
X79063500Y-83324999D01*
X90755964Y-83324999D01*
X90755964Y-84675001D01*
X90766898Y-84786014D01*
X90799279Y-84892761D01*
X90851864Y-84991140D01*
X90922630Y-85077370D01*
X91008860Y-85148136D01*
X91107239Y-85200721D01*
X91213986Y-85233102D01*
X91324999Y-85244036D01*
X92675001Y-85244036D01*
X92786014Y-85233102D01*
X92892761Y-85200721D01*
X92991140Y-85148136D01*
X93077370Y-85077370D01*
X93148136Y-84991140D01*
X93200721Y-84892761D01*
X93233102Y-84786014D01*
X93244036Y-84675001D01*
X93244036Y-83324999D01*
X101755964Y-83324999D01*
X101755964Y-84675001D01*
X101766898Y-84786014D01*
X101799279Y-84892761D01*
X101851864Y-84991140D01*
X101922630Y-85077370D01*
X102008860Y-85148136D01*
X102107239Y-85200721D01*
X102213986Y-85233102D01*
X102324999Y-85244036D01*
X103675001Y-85244036D01*
X103786014Y-85233102D01*
X103892761Y-85200721D01*
X103991140Y-85148136D01*
X104077370Y-85077370D01*
X104148136Y-84991140D01*
X104200721Y-84892761D01*
X104233102Y-84786014D01*
X104244036Y-84675001D01*
X104244036Y-83324999D01*
X104233102Y-83213986D01*
X104200721Y-83107239D01*
X104148136Y-83008860D01*
X104077370Y-82922630D01*
X103991140Y-82851864D01*
X103892761Y-82799279D01*
X103786014Y-82766898D01*
X103675001Y-82755964D01*
X102324999Y-82755964D01*
X102213986Y-82766898D01*
X102107239Y-82799279D01*
X102008860Y-82851864D01*
X101922630Y-82922630D01*
X101851864Y-83008860D01*
X101799279Y-83107239D01*
X101766898Y-83213986D01*
X101755964Y-83324999D01*
X93244036Y-83324999D01*
X93233102Y-83213986D01*
X93200721Y-83107239D01*
X93148136Y-83008860D01*
X93077370Y-82922630D01*
X92991140Y-82851864D01*
X92892761Y-82799279D01*
X92786014Y-82766898D01*
X92675001Y-82755964D01*
X91324999Y-82755964D01*
X91213986Y-82766898D01*
X91107239Y-82799279D01*
X91008860Y-82851864D01*
X90922630Y-82922630D01*
X90851864Y-83008860D01*
X90799279Y-83107239D01*
X90766898Y-83213986D01*
X90755964Y-83324999D01*
X79063500Y-83324999D01*
X79063500Y-80670386D01*
X91219417Y-80670386D01*
X91318466Y-80846085D01*
X91535642Y-80958944D01*
X91770664Y-81027267D01*
X92014499Y-81048427D01*
X92257776Y-81021610D01*
X92491146Y-80947848D01*
X92681534Y-80846085D01*
X92730774Y-80758739D01*
X99202057Y-80758739D01*
X99202057Y-80880375D01*
X99225787Y-80999675D01*
X99272335Y-81112053D01*
X99339913Y-81213190D01*
X99425924Y-81299201D01*
X99527061Y-81366779D01*
X99639439Y-81413327D01*
X99758739Y-81437057D01*
X99880375Y-81437057D01*
X99895278Y-81434093D01*
X100088905Y-81627720D01*
X100085941Y-81642623D01*
X100085941Y-81764259D01*
X100109671Y-81883559D01*
X100156219Y-81995937D01*
X100223797Y-82097074D01*
X100309808Y-82183085D01*
X100410945Y-82250663D01*
X100523323Y-82297211D01*
X100642623Y-82320941D01*
X100764259Y-82320941D01*
X100883559Y-82297211D01*
X100995937Y-82250663D01*
X101097074Y-82183085D01*
X101183085Y-82097074D01*
X101250663Y-81995937D01*
X101297211Y-81883559D01*
X101320941Y-81764259D01*
X101320941Y-81642623D01*
X101297211Y-81523323D01*
X101250663Y-81410945D01*
X101183085Y-81309808D01*
X101097074Y-81223797D01*
X100995937Y-81156219D01*
X100883559Y-81109671D01*
X100764259Y-81085941D01*
X100642623Y-81085941D01*
X100627720Y-81088905D01*
X100434093Y-80895278D01*
X100437057Y-80880375D01*
X100437057Y-80758739D01*
X100419483Y-80670386D01*
X102219417Y-80670386D01*
X102318466Y-80846085D01*
X102535642Y-80958944D01*
X102770664Y-81027267D01*
X103014499Y-81048427D01*
X103257776Y-81021610D01*
X103491146Y-80947848D01*
X103681534Y-80846085D01*
X103780583Y-80670386D01*
X103000000Y-79889803D01*
X102219417Y-80670386D01*
X100419483Y-80670386D01*
X100413327Y-80639439D01*
X100366779Y-80527061D01*
X100299201Y-80425924D01*
X100213190Y-80339913D01*
X100112053Y-80272335D01*
X99999675Y-80225787D01*
X99880375Y-80202057D01*
X99758739Y-80202057D01*
X99639439Y-80225787D01*
X99527061Y-80272335D01*
X99425924Y-80339913D01*
X99339913Y-80425924D01*
X99272335Y-80527061D01*
X99225787Y-80639439D01*
X99202057Y-80758739D01*
X92730774Y-80758739D01*
X92780583Y-80670386D01*
X92000000Y-79889803D01*
X91219417Y-80670386D01*
X79063500Y-80670386D01*
X79063500Y-79814499D01*
X90751573Y-79814499D01*
X90778390Y-80057776D01*
X90852152Y-80291146D01*
X90953915Y-80481534D01*
X91129614Y-80580583D01*
X91910197Y-79800000D01*
X92089803Y-79800000D01*
X92870386Y-80580583D01*
X93046085Y-80481534D01*
X93158944Y-80264358D01*
X93227267Y-80029336D01*
X93245910Y-79814499D01*
X101751573Y-79814499D01*
X101778390Y-80057776D01*
X101852152Y-80291146D01*
X101953915Y-80481534D01*
X102129614Y-80580583D01*
X102910197Y-79800000D01*
X103089803Y-79800000D01*
X103870386Y-80580583D01*
X104046085Y-80481534D01*
X104158944Y-80264358D01*
X104227267Y-80029336D01*
X104248427Y-79785501D01*
X104221610Y-79542224D01*
X104147848Y-79308854D01*
X104046085Y-79118466D01*
X103870386Y-79019417D01*
X103089803Y-79800000D01*
X102910197Y-79800000D01*
X102129614Y-79019417D01*
X101953915Y-79118466D01*
X101841056Y-79335642D01*
X101772733Y-79570664D01*
X101751573Y-79814499D01*
X93245910Y-79814499D01*
X93248427Y-79785501D01*
X93221610Y-79542224D01*
X93147848Y-79308854D01*
X93046085Y-79118466D01*
X92870386Y-79019417D01*
X92089803Y-79800000D01*
X91910197Y-79800000D01*
X91129614Y-79019417D01*
X90953915Y-79118466D01*
X90841056Y-79335642D01*
X90772733Y-79570664D01*
X90751573Y-79814499D01*
X79063500Y-79814499D01*
X79063500Y-78929614D01*
X91219417Y-78929614D01*
X92000000Y-79710197D01*
X92780583Y-78929614D01*
X102219417Y-78929614D01*
X103000000Y-79710197D01*
X103780583Y-78929614D01*
X103681534Y-78753915D01*
X103464358Y-78641056D01*
X103229336Y-78572733D01*
X102985501Y-78551573D01*
X102742224Y-78578390D01*
X102508854Y-78652152D01*
X102318466Y-78753915D01*
X102219417Y-78929614D01*
X92780583Y-78929614D01*
X92681534Y-78753915D01*
X92464358Y-78641056D01*
X92229336Y-78572733D01*
X91985501Y-78551573D01*
X91742224Y-78578390D01*
X91508854Y-78652152D01*
X91318466Y-78753915D01*
X91219417Y-78929614D01*
X79063500Y-78929614D01*
X79063500Y-76600000D01*
X79140964Y-76600000D01*
X79140964Y-77600000D01*
X79156702Y-77759786D01*
X79203309Y-77913432D01*
X79278996Y-78055032D01*
X79380854Y-78179146D01*
X79504968Y-78281004D01*
X79646568Y-78356691D01*
X79800214Y-78403298D01*
X79960000Y-78419036D01*
X80960000Y-78419036D01*
X81119786Y-78403298D01*
X81273432Y-78356691D01*
X81415032Y-78281004D01*
X81539146Y-78179146D01*
X81641004Y-78055032D01*
X81716691Y-77913432D01*
X81763298Y-77759786D01*
X81779036Y-77600000D01*
X81779036Y-76600000D01*
X81763298Y-76440214D01*
X81716691Y-76286568D01*
X81641004Y-76144968D01*
X81539146Y-76020854D01*
X81415032Y-75918996D01*
X81273432Y-75843309D01*
X81119786Y-75796702D01*
X80960000Y-75780964D01*
X79960000Y-75780964D01*
X79800214Y-75796702D01*
X79646568Y-75843309D01*
X79504968Y-75918996D01*
X79380854Y-76020854D01*
X79278996Y-76144968D01*
X79203309Y-76286568D01*
X79156702Y-76440214D01*
X79140964Y-76600000D01*
X79063500Y-76600000D01*
X79063500Y-69589182D01*
X94982497Y-69589182D01*
X94982497Y-69710818D01*
X95006227Y-69830118D01*
X95052775Y-69942496D01*
X95120353Y-70043633D01*
X95206364Y-70129644D01*
X95307501Y-70197222D01*
X95419879Y-70243770D01*
X95539179Y-70267500D01*
X95660815Y-70267500D01*
X95780115Y-70243770D01*
X95892493Y-70197222D01*
X95993630Y-70129644D01*
X95999999Y-70123276D01*
X96006367Y-70129644D01*
X96107504Y-70197222D01*
X96219882Y-70243770D01*
X96339182Y-70267500D01*
X96460818Y-70267500D01*
X96580118Y-70243770D01*
X96692496Y-70197222D01*
X96793633Y-70129644D01*
X96879644Y-70043633D01*
X96947222Y-69942496D01*
X96993770Y-69830118D01*
X97017500Y-69710818D01*
X97017500Y-69589182D01*
X96993770Y-69469882D01*
X96947222Y-69357504D01*
X96879644Y-69256367D01*
X96793633Y-69170356D01*
X96781000Y-69161915D01*
X96781000Y-68311075D01*
X96793633Y-68302634D01*
X96879644Y-68216623D01*
X96947222Y-68115486D01*
X96993770Y-68003108D01*
X97017500Y-67883808D01*
X97017500Y-67839182D01*
X97882500Y-67839182D01*
X97882500Y-67960818D01*
X97906230Y-68080118D01*
X97932500Y-68143540D01*
X97932501Y-69556458D01*
X97906230Y-69619882D01*
X97882500Y-69739182D01*
X97882500Y-69860818D01*
X97906230Y-69980118D01*
X97952778Y-70092496D01*
X98020356Y-70193633D01*
X98106367Y-70279644D01*
X98207504Y-70347222D01*
X98319882Y-70393770D01*
X98439182Y-70417500D01*
X98560818Y-70417500D01*
X98680118Y-70393770D01*
X98792496Y-70347222D01*
X98893633Y-70279644D01*
X98979644Y-70193633D01*
X99047222Y-70092496D01*
X99093770Y-69980118D01*
X99117500Y-69860818D01*
X99117500Y-69739182D01*
X99093770Y-69619882D01*
X99067500Y-69556460D01*
X99067500Y-68143540D01*
X99093770Y-68080118D01*
X99117500Y-67960818D01*
X99117500Y-67839182D01*
X99093770Y-67719882D01*
X99047222Y-67607504D01*
X98979644Y-67506367D01*
X98893633Y-67420356D01*
X98792496Y-67352778D01*
X98680118Y-67306230D01*
X98560818Y-67282500D01*
X98439182Y-67282500D01*
X98319882Y-67306230D01*
X98207504Y-67352778D01*
X98106367Y-67420356D01*
X98020356Y-67506367D01*
X97952778Y-67607504D01*
X97906230Y-67719882D01*
X97882500Y-67839182D01*
X97017500Y-67839182D01*
X97017500Y-67762172D01*
X96993770Y-67642872D01*
X96947222Y-67530494D01*
X96879644Y-67429357D01*
X96793633Y-67343346D01*
X96692496Y-67275768D01*
X96580118Y-67229220D01*
X96460818Y-67205490D01*
X96339182Y-67205490D01*
X96219882Y-67229220D01*
X96107504Y-67275768D01*
X96017446Y-67335944D01*
X95994218Y-67312716D01*
X95893081Y-67245138D01*
X95780703Y-67198590D01*
X95661403Y-67174860D01*
X95539767Y-67174860D01*
X95420467Y-67198590D01*
X95308089Y-67245138D01*
X95206952Y-67312716D01*
X95120941Y-67398727D01*
X95053363Y-67499864D01*
X95006815Y-67612242D01*
X94983085Y-67731542D01*
X94983085Y-67853178D01*
X95006815Y-67972478D01*
X95053363Y-68084856D01*
X95120941Y-68185993D01*
X95206952Y-68272004D01*
X95218998Y-68280053D01*
X95218997Y-69161915D01*
X95206364Y-69170356D01*
X95120353Y-69256367D01*
X95052775Y-69357504D01*
X95006227Y-69469882D01*
X94982497Y-69589182D01*
X79063500Y-69589182D01*
X79063500Y-66770238D01*
X79142500Y-66770238D01*
X79142500Y-67029762D01*
X79193131Y-67284301D01*
X79292446Y-67524070D01*
X79436631Y-67739857D01*
X79620143Y-67923369D01*
X79835930Y-68067554D01*
X80075699Y-68166869D01*
X80330238Y-68217500D01*
X80589762Y-68217500D01*
X80844301Y-68166869D01*
X81084070Y-68067554D01*
X81299857Y-67923369D01*
X81483369Y-67739857D01*
X81627554Y-67524070D01*
X81726869Y-67284301D01*
X81777500Y-67029762D01*
X81777500Y-66770238D01*
X81726869Y-66515699D01*
X81627554Y-66275930D01*
X81483369Y-66060143D01*
X81299857Y-65876631D01*
X81084070Y-65732446D01*
X80844301Y-65633131D01*
X80589762Y-65582500D01*
X80330238Y-65582500D01*
X80075699Y-65633131D01*
X79835930Y-65732446D01*
X79620143Y-65876631D01*
X79436631Y-66060143D01*
X79292446Y-66275930D01*
X79193131Y-66515699D01*
X79142500Y-66770238D01*
X79063500Y-66770238D01*
X79063500Y-62344182D01*
X103577500Y-62344182D01*
X103577500Y-62465818D01*
X103601230Y-62585118D01*
X103647778Y-62697496D01*
X103715356Y-62798633D01*
X103801367Y-62884644D01*
X103902504Y-62952222D01*
X103919001Y-62959055D01*
X103919000Y-69611915D01*
X103906367Y-69620356D01*
X103820356Y-69706367D01*
X103752778Y-69807504D01*
X103706230Y-69919882D01*
X103682500Y-70039182D01*
X103682500Y-70160818D01*
X103706230Y-70280118D01*
X103752778Y-70392496D01*
X103820356Y-70493633D01*
X103906367Y-70579644D01*
X104007504Y-70647222D01*
X104119882Y-70693770D01*
X104239182Y-70717500D01*
X104360818Y-70717500D01*
X104480118Y-70693770D01*
X104592496Y-70647222D01*
X104693633Y-70579644D01*
X104779644Y-70493633D01*
X104847222Y-70392496D01*
X104893770Y-70280118D01*
X104917500Y-70160818D01*
X104917500Y-70039182D01*
X104893770Y-69919882D01*
X104847222Y-69807504D01*
X104779644Y-69706367D01*
X104693633Y-69620356D01*
X104681000Y-69611915D01*
X104681000Y-62789121D01*
X104742222Y-62697496D01*
X104788770Y-62585118D01*
X104812500Y-62465818D01*
X104812500Y-62344182D01*
X104788770Y-62224882D01*
X104742222Y-62112504D01*
X104674644Y-62011367D01*
X104588633Y-61925356D01*
X104487496Y-61857778D01*
X104375118Y-61811230D01*
X104255818Y-61787500D01*
X104134182Y-61787500D01*
X104014882Y-61811230D01*
X103902504Y-61857778D01*
X103801367Y-61925356D01*
X103715356Y-62011367D01*
X103647778Y-62112504D01*
X103601230Y-62224882D01*
X103577500Y-62344182D01*
X79063500Y-62344182D01*
X79063500Y-53150000D01*
X99830964Y-53150000D01*
X99830964Y-54850000D01*
X99837094Y-54912241D01*
X99855249Y-54972090D01*
X99884731Y-55027247D01*
X99924407Y-55075593D01*
X99972753Y-55115269D01*
X100027910Y-55144751D01*
X100087759Y-55162906D01*
X100150000Y-55169036D01*
X101850000Y-55169036D01*
X101912241Y-55162906D01*
X101972090Y-55144751D01*
X102027247Y-55115269D01*
X102075593Y-55075593D01*
X102115269Y-55027247D01*
X102144751Y-54972090D01*
X102162906Y-54912241D01*
X102169036Y-54850000D01*
X102169036Y-53885011D01*
X102372500Y-53885011D01*
X102372500Y-54114989D01*
X102417366Y-54340547D01*
X102505375Y-54553019D01*
X102633144Y-54744238D01*
X102795762Y-54906856D01*
X102986981Y-55034625D01*
X103199453Y-55122634D01*
X103425011Y-55167500D01*
X103654989Y-55167500D01*
X103880547Y-55122634D01*
X104093019Y-55034625D01*
X104284238Y-54906856D01*
X104446856Y-54744238D01*
X104574625Y-54553019D01*
X104662634Y-54340547D01*
X104707500Y-54114989D01*
X104707500Y-53885011D01*
X104912500Y-53885011D01*
X104912500Y-54114989D01*
X104957366Y-54340547D01*
X105045375Y-54553019D01*
X105173144Y-54744238D01*
X105335762Y-54906856D01*
X105526981Y-55034625D01*
X105739453Y-55122634D01*
X105965011Y-55167500D01*
X106194989Y-55167500D01*
X106420547Y-55122634D01*
X106633019Y-55034625D01*
X106824238Y-54906856D01*
X106986856Y-54744238D01*
X107114625Y-54553019D01*
X107202634Y-54340547D01*
X107221622Y-54245086D01*
X107478511Y-54245086D01*
X107548258Y-54463070D01*
X107659192Y-54663259D01*
X107807049Y-54837959D01*
X107986147Y-54980457D01*
X108189604Y-55085276D01*
X108374915Y-55141486D01*
X108556500Y-55086271D01*
X108556500Y-54063500D01*
X108683500Y-54063500D01*
X108683500Y-55086271D01*
X108865085Y-55141486D01*
X109050396Y-55085276D01*
X109253853Y-54980457D01*
X109432951Y-54837959D01*
X109580808Y-54663259D01*
X109691742Y-54463070D01*
X109761489Y-54245086D01*
X109706400Y-54063500D01*
X108683500Y-54063500D01*
X108556500Y-54063500D01*
X107533600Y-54063500D01*
X107478511Y-54245086D01*
X107221622Y-54245086D01*
X107247500Y-54114989D01*
X107247500Y-53885011D01*
X107221623Y-53754914D01*
X107478511Y-53754914D01*
X107533600Y-53936500D01*
X108556500Y-53936500D01*
X108556500Y-52913729D01*
X108683500Y-52913729D01*
X108683500Y-53936500D01*
X109706400Y-53936500D01*
X109761489Y-53754914D01*
X109691742Y-53536930D01*
X109580808Y-53336741D01*
X109432951Y-53162041D01*
X109253853Y-53019543D01*
X109050396Y-52914724D01*
X108865085Y-52858514D01*
X108683500Y-52913729D01*
X108556500Y-52913729D01*
X108374915Y-52858514D01*
X108189604Y-52914724D01*
X107986147Y-53019543D01*
X107807049Y-53162041D01*
X107659192Y-53336741D01*
X107548258Y-53536930D01*
X107478511Y-53754914D01*
X107221623Y-53754914D01*
X107202634Y-53659453D01*
X107114625Y-53446981D01*
X106986856Y-53255762D01*
X106824238Y-53093144D01*
X106633019Y-52965375D01*
X106420547Y-52877366D01*
X106194989Y-52832500D01*
X105965011Y-52832500D01*
X105739453Y-52877366D01*
X105526981Y-52965375D01*
X105335762Y-53093144D01*
X105173144Y-53255762D01*
X105045375Y-53446981D01*
X104957366Y-53659453D01*
X104912500Y-53885011D01*
X104707500Y-53885011D01*
X104662634Y-53659453D01*
X104574625Y-53446981D01*
X104446856Y-53255762D01*
X104284238Y-53093144D01*
X104093019Y-52965375D01*
X103880547Y-52877366D01*
X103654989Y-52832500D01*
X103425011Y-52832500D01*
X103199453Y-52877366D01*
X102986981Y-52965375D01*
X102795762Y-53093144D01*
X102633144Y-53255762D01*
X102505375Y-53446981D01*
X102417366Y-53659453D01*
X102372500Y-53885011D01*
X102169036Y-53885011D01*
X102169036Y-53150000D01*
X102162906Y-53087759D01*
X102144751Y-53027910D01*
X102115269Y-52972753D01*
X102075593Y-52924407D01*
X102027247Y-52884731D01*
X101972090Y-52855249D01*
X101912241Y-52837094D01*
X101850000Y-52830964D01*
X100150000Y-52830964D01*
X100087759Y-52837094D01*
X100027910Y-52855249D01*
X99972753Y-52884731D01*
X99924407Y-52924407D01*
X99884731Y-52972753D01*
X99855249Y-53027910D01*
X99837094Y-53087759D01*
X99830964Y-53150000D01*
X79063500Y-53150000D01*
X79063500Y-52439182D01*
X93182501Y-52439182D01*
X93182501Y-52560818D01*
X93206231Y-52680118D01*
X93252779Y-52792496D01*
X93320357Y-52893633D01*
X93406368Y-52979644D01*
X93507505Y-53047222D01*
X93619883Y-53093770D01*
X93739183Y-53117500D01*
X93860819Y-53117500D01*
X93980119Y-53093770D01*
X94092497Y-53047222D01*
X94193634Y-52979644D01*
X94279645Y-52893633D01*
X94288086Y-52881000D01*
X94765926Y-52881000D01*
X94774367Y-52893633D01*
X94860378Y-52979644D01*
X94961515Y-53047222D01*
X95073893Y-53093770D01*
X95193193Y-53117500D01*
X95314829Y-53117500D01*
X95434129Y-53093770D01*
X95546507Y-53047222D01*
X95647644Y-52979644D01*
X95733655Y-52893633D01*
X95801233Y-52792496D01*
X95847781Y-52680118D01*
X95871511Y-52560818D01*
X95871511Y-52439182D01*
X95847781Y-52319882D01*
X95801233Y-52207504D01*
X95733655Y-52106367D01*
X95666470Y-52039182D01*
X97282500Y-52039182D01*
X97282500Y-52160818D01*
X97306230Y-52280118D01*
X97352778Y-52392496D01*
X97420356Y-52493633D01*
X97506367Y-52579644D01*
X97607504Y-52647222D01*
X97719882Y-52693770D01*
X97839182Y-52717500D01*
X97960818Y-52717500D01*
X98080118Y-52693770D01*
X98192496Y-52647222D01*
X98293633Y-52579644D01*
X98379644Y-52493633D01*
X98447222Y-52392496D01*
X98493770Y-52280118D01*
X98517500Y-52160818D01*
X98517500Y-52039182D01*
X98514536Y-52024279D01*
X98868351Y-51670463D01*
X98937835Y-51716891D01*
X99050213Y-51763439D01*
X99169513Y-51787169D01*
X99291149Y-51787169D01*
X99410449Y-51763439D01*
X99522827Y-51716891D01*
X99623964Y-51649313D01*
X99709975Y-51563302D01*
X99777553Y-51462165D01*
X99824101Y-51349787D01*
X99847831Y-51230487D01*
X99847831Y-51108851D01*
X99824101Y-50989551D01*
X99777553Y-50877173D01*
X99709975Y-50776036D01*
X99623964Y-50690025D01*
X99522827Y-50622447D01*
X99410449Y-50575899D01*
X99291149Y-50552169D01*
X99169513Y-50552169D01*
X99050213Y-50575899D01*
X98937835Y-50622447D01*
X98836698Y-50690025D01*
X98750687Y-50776036D01*
X98734220Y-50800680D01*
X98683823Y-50815968D01*
X98617634Y-50851347D01*
X98588303Y-50875419D01*
X98559620Y-50898958D01*
X98547690Y-50913495D01*
X97975721Y-51485464D01*
X97960818Y-51482500D01*
X97839182Y-51482500D01*
X97719882Y-51506230D01*
X97607504Y-51552778D01*
X97506367Y-51620356D01*
X97420356Y-51706367D01*
X97352778Y-51807504D01*
X97306230Y-51919882D01*
X97282500Y-52039182D01*
X95666470Y-52039182D01*
X95647644Y-52020356D01*
X95546507Y-51952778D01*
X95434129Y-51906230D01*
X95314829Y-51882500D01*
X95193193Y-51882500D01*
X95073893Y-51906230D01*
X94961515Y-51952778D01*
X94860378Y-52020356D01*
X94774367Y-52106367D01*
X94765926Y-52119000D01*
X94288086Y-52119000D01*
X94279645Y-52106367D01*
X94193634Y-52020356D01*
X94092497Y-51952778D01*
X93980119Y-51906230D01*
X93860819Y-51882500D01*
X93739183Y-51882500D01*
X93619883Y-51906230D01*
X93507505Y-51952778D01*
X93406368Y-52020356D01*
X93320357Y-52106367D01*
X93252779Y-52207504D01*
X93206231Y-52319882D01*
X93182501Y-52439182D01*
X79063500Y-52439182D01*
X79063500Y-48600000D01*
X79140964Y-48600000D01*
X79140964Y-49600000D01*
X79156702Y-49759786D01*
X79203309Y-49913432D01*
X79278996Y-50055032D01*
X79380854Y-50179146D01*
X79504968Y-50281004D01*
X79646568Y-50356691D01*
X79800214Y-50403298D01*
X79960000Y-50419036D01*
X80960000Y-50419036D01*
X81119786Y-50403298D01*
X81273432Y-50356691D01*
X81415032Y-50281004D01*
X81539146Y-50179146D01*
X81641004Y-50055032D01*
X81716691Y-49913432D01*
X81763298Y-49759786D01*
X81779036Y-49600000D01*
X81779036Y-48600000D01*
X81763298Y-48440214D01*
X81755402Y-48414182D01*
X82132500Y-48414182D01*
X82132500Y-48535818D01*
X82156230Y-48655118D01*
X82202778Y-48767496D01*
X82270356Y-48868633D01*
X82307500Y-48905777D01*
X82307501Y-49294222D01*
X82270356Y-49331367D01*
X82202778Y-49432504D01*
X82156230Y-49544882D01*
X82132500Y-49664182D01*
X82132500Y-49785818D01*
X82156230Y-49905118D01*
X82202778Y-50017496D01*
X82270356Y-50118633D01*
X82356367Y-50204644D01*
X82457504Y-50272222D01*
X82569882Y-50318770D01*
X82689182Y-50342500D01*
X82810818Y-50342500D01*
X82930118Y-50318770D01*
X83042496Y-50272222D01*
X83143633Y-50204644D01*
X83229644Y-50118633D01*
X83297222Y-50017496D01*
X83343770Y-49905118D01*
X83367500Y-49785818D01*
X83367500Y-49664182D01*
X83343770Y-49544882D01*
X83297222Y-49432504D01*
X83229644Y-49331367D01*
X83192500Y-49294223D01*
X83192500Y-48905777D01*
X83229644Y-48868633D01*
X83297222Y-48767496D01*
X83343770Y-48655118D01*
X83367500Y-48535818D01*
X83367500Y-48414182D01*
X83343770Y-48294882D01*
X83297222Y-48182504D01*
X83229644Y-48081367D01*
X83143633Y-47995356D01*
X83042496Y-47927778D01*
X82930118Y-47881230D01*
X82810818Y-47857500D01*
X82689182Y-47857500D01*
X82569882Y-47881230D01*
X82457504Y-47927778D01*
X82356367Y-47995356D01*
X82270356Y-48081367D01*
X82202778Y-48182504D01*
X82156230Y-48294882D01*
X82132500Y-48414182D01*
X81755402Y-48414182D01*
X81716691Y-48286568D01*
X81641004Y-48144968D01*
X81539146Y-48020854D01*
X81415032Y-47918996D01*
X81273432Y-47843309D01*
X81119786Y-47796702D01*
X80960000Y-47780964D01*
X79960000Y-47780964D01*
X79800214Y-47796702D01*
X79646568Y-47843309D01*
X79504968Y-47918996D01*
X79380854Y-48020854D01*
X79278996Y-48144968D01*
X79203309Y-48286568D01*
X79156702Y-48440214D01*
X79140964Y-48600000D01*
X79063500Y-48600000D01*
X79063500Y-41939182D01*
X79882500Y-41939182D01*
X79882500Y-42060818D01*
X79906230Y-42180118D01*
X79952778Y-42292496D01*
X80020356Y-42393633D01*
X80057500Y-42430777D01*
X80057501Y-45569222D01*
X80020356Y-45606367D01*
X79952778Y-45707504D01*
X79906230Y-45819882D01*
X79882500Y-45939182D01*
X79882500Y-46060818D01*
X79906230Y-46180118D01*
X79952778Y-46292496D01*
X80020356Y-46393633D01*
X80106367Y-46479644D01*
X80207504Y-46547222D01*
X80319882Y-46593770D01*
X80439182Y-46617500D01*
X80560818Y-46617500D01*
X80680118Y-46593770D01*
X80792496Y-46547222D01*
X80893633Y-46479644D01*
X80979644Y-46393633D01*
X81047222Y-46292496D01*
X81093770Y-46180118D01*
X81117500Y-46060818D01*
X81117500Y-45939182D01*
X81093770Y-45819882D01*
X81047222Y-45707504D01*
X80979644Y-45606367D01*
X80942500Y-45569223D01*
X80942500Y-42430777D01*
X80979644Y-42393633D01*
X81047222Y-42292496D01*
X81093770Y-42180118D01*
X81117500Y-42060818D01*
X81117500Y-41939182D01*
X81093770Y-41819882D01*
X81047222Y-41707504D01*
X80979644Y-41606367D01*
X80893633Y-41520356D01*
X80792496Y-41452778D01*
X80680118Y-41406230D01*
X80560818Y-41382500D01*
X80439182Y-41382500D01*
X80319882Y-41406230D01*
X80207504Y-41452778D01*
X80106367Y-41520356D01*
X80020356Y-41606367D01*
X79952778Y-41707504D01*
X79906230Y-41819882D01*
X79882500Y-41939182D01*
X79063500Y-41939182D01*
X79063500Y-40002265D01*
X79083371Y-39724433D01*
X79142098Y-39454468D01*
X79199675Y-39300099D01*
X79292446Y-39524070D01*
X79436631Y-39739857D01*
X79620143Y-39923369D01*
X79835930Y-40067554D01*
X80075699Y-40166869D01*
X80330238Y-40217500D01*
X80589762Y-40217500D01*
X80844301Y-40166869D01*
X81084070Y-40067554D01*
X81299857Y-39923369D01*
X81483369Y-39739857D01*
X81627554Y-39524070D01*
X81726869Y-39284301D01*
X81777500Y-39029762D01*
X81777500Y-38770238D01*
X81726869Y-38515699D01*
X81627554Y-38275930D01*
X81485612Y-38063500D01*
X110743659Y-38063500D01*
X111012067Y-38144537D01*
G37*
%TD.AperFunction*%
%TD*%
M02*
